<svg xmlns="http://www.w3.org/2000/svg" xmlns:xlink="http://www.w3.org/1999/xlink" width="85" height="80" viewBox="0 0 85 80" fill="none"><g opacity="1"  transform="translate(1 1)"><g opacity="1"  transform="translate(17 14)"><mask id="bg-mask-0" fill="white"><use transform="translate(0 0)" xlink:href="#path_0"></use></mask><g mask="url(#bg-mask-0)" ><path  id="路径 1" style="fill:#7948EA; opacity:1;" d="M12 19.6667L6 19.6667C5.63181 19.6667 5.33333 19.3682 5.33333 19L5.33333 6C5.33333 5.63181 5.63181 5.33333 6 5.33333L42 5.33333C42.3682 5.33333 42.6667 5.63181 42.6667 6L42.6667 19C42.6667 19.3682 42.3682 19.6667 42 19.6667L36 19.6667Q35.9343 19.6667 35.8699 19.6539Q35.8055 19.641 35.7449 19.6159Q35.6842 19.5908 35.6296 19.5543Q35.575 19.5178 35.5286 19.4714Q35.4822 19.425 35.4457 19.3704Q35.4092 19.3158 35.3841 19.2551Q35.3589 19.1945 35.3461 19.1301Q35.3333 19.0657 35.3333 19Q35.3333 18.9343 35.3461 18.8699Q35.3589 18.8055 35.3841 18.7449Q35.4092 18.6842 35.4457 18.6296Q35.4822 18.575 35.5286 18.5286Q35.575 18.4822 35.6296 18.4457Q35.6842 18.4092 35.7449 18.3841Q35.8055 18.359 35.8699 18.3461Q35.9343 18.3333 36 18.3333L42 18.3333L42 19L41.3333 19L41.3333 6L42 6L42 6.66667L6 6.66667L6 6L6.66667 6L6.66667 19L6 19L6 18.3333L12 18.3333Q12.0657 18.3333 12.1301 18.3461Q12.1945 18.359 12.2551 18.3841Q12.3158 18.4092 12.3704 18.4457Q12.425 18.4822 12.4714 18.5286Q12.5178 18.575 12.5543 18.6296Q12.5908 18.6842 12.6159 18.7449Q12.641 18.8055 12.6539 18.8699Q12.6667 18.9343 12.6667 19Q12.6667 19.0657 12.6539 19.1301Q12.641 19.1945 12.6159 19.2551Q12.5908 19.3158 12.5543 19.3704Q12.5178 19.425 12.4714 19.4714Q12.425 19.5178 12.3704 19.5543Q12.3158 19.5908 12.2551 19.6159Q12.1945 19.641 12.1301 19.6539Q12.0657 19.6667 12 19.6667Z"></path><path  id="路径 2" style="fill:#7948EA; opacity:1;" d="M12 11.3333L36 11.3333C36.3682 11.3333 36.6667 11.6318 36.6667 12L36.6667 44C36.6667 44.5475 36.0432 44.8616 35.6032 44.5357L29.6032 40.0913L30 39.5556L30.3968 40.0913L24.3968 44.5357C24.1611 44.7103 23.8389 44.7103 23.6032 44.5357L17.6032 40.0913L18 39.5556L18.3968 40.0913L12.3968 44.5357C11.9568 44.8616 11.3333 44.5475 11.3333 44L11.3333 12Q11.3333 11.9343 11.3461 11.8699Q11.359 11.8055 11.3841 11.7449Q11.4092 11.6842 11.4457 11.6296Q11.4822 11.575 11.5286 11.5286Q11.575 11.4822 11.6296 11.4457Q11.6842 11.4092 11.7449 11.3841Q11.8055 11.359 11.8699 11.3461Q11.9343 11.3333 12 11.3333Q12.0657 11.3333 12.1301 11.3461Q12.1945 11.359 12.2551 11.3841Q12.3158 11.4092 12.3704 11.4457Q12.425 11.4822 12.4714 11.5286Q12.5178 11.575 12.5543 11.6296Q12.5908 11.6842 12.6159 11.7449Q12.641 11.8055 12.6539 11.8699Q12.6667 11.9343 12.6667 12L12.6667 44L12 44L11.6032 43.4643L17.6032 39.0199C17.8389 38.8453 18.1611 38.8453 18.3968 39.0199L24.3968 43.4643L24 44L23.6032 43.4643L29.6032 39.0199C29.8389 38.8453 30.1611 38.8453 30.3968 39.0199L36.3968 43.4643L36 44L35.3333 44L35.3333 12L36 12L36 12.6667L12 12.6667Q11.9343 12.6667 11.8699 12.6539Q11.8055 12.641 11.7449 12.6159Q11.6842 12.5908 11.6296 12.5543Q11.575 12.5178 11.5286 12.4714Q11.4822 12.425 11.4457 12.3704Q11.4092 12.3158 11.3841 12.2551Q11.359 12.1945 11.3461 12.1301Q11.3333 12.0657 11.3333 12Q11.3333 11.9343 11.3461 11.8699Q11.359 11.8055 11.3841 11.7449Q11.4092 11.6842 11.4457 11.6296Q11.4822 11.575 11.5286 11.5286Q11.575 11.4822 11.6296 11.4457Q11.6842 11.4092 11.7449 11.3841Q11.8055 11.359 11.8699 11.3461Q11.9343 11.3333 12 11.3333ZM12 11.3333L12 12L11.3333 12L11.3333 11.3333L12 11.3333Z"></path><path  id="路径 3" style="fill:#7948EA; opacity:1;" d="M20 25.3446L28 25.3446Q28.0657 25.3446 28.1301 25.3572Q28.1945 25.3698 28.2551 25.3945Q28.3158 25.4192 28.3704 25.4551Q28.425 25.4909 28.4714 25.5366Q28.5178 25.5822 28.5543 25.6359Q28.5908 25.6896 28.6159 25.7492Q28.641 25.8088 28.6539 25.8721Q28.6667 25.9355 28.6667 26Q28.6667 26.0645 28.6539 26.1279Q28.641 26.1912 28.6159 26.2508Q28.5908 26.3104 28.5543 26.3641Q28.5178 26.4178 28.4714 26.4634Q28.425 26.5091 28.3704 26.5449Q28.3158 26.5808 28.2551 26.6055Q28.1945 26.6302 28.1301 26.6428Q28.0657 26.6554 28 26.6554L20 26.6554Q19.9343 26.6554 19.8699 26.6428Q19.8055 26.6302 19.7449 26.6055Q19.6842 26.5808 19.6296 26.5449Q19.575 26.509 19.5286 26.4634Q19.4822 26.4178 19.4457 26.3641Q19.4092 26.3104 19.3841 26.2508Q19.359 26.1912 19.3461 26.1279Q19.3333 26.0645 19.3333 26Q19.3333 25.9355 19.3461 25.8721Q19.359 25.8088 19.3841 25.7492Q19.4092 25.6896 19.4457 25.6359Q19.4822 25.5822 19.5286 25.5366Q19.575 25.4909 19.6296 25.4551Q19.6842 25.4192 19.7449 25.3945Q19.8055 25.3698 19.8699 25.3572Q19.9343 25.3446 20 25.3446Z"></path><path  id="路径 4" style="fill:#7948EA; opacity:1;" d="M24.6554 22L24.6554 30Q24.6554 30.0657 24.6428 30.1301Q24.6302 30.1945 24.6055 30.2551Q24.5808 30.3158 24.5449 30.3704Q24.509 30.425 24.4634 30.4714Q24.4178 30.5178 24.3641 30.5543Q24.3104 30.5908 24.2508 30.6159Q24.1912 30.641 24.1279 30.6539Q24.0645 30.6667 24 30.6667Q23.9355 30.6667 23.8721 30.6539Q23.8088 30.641 23.7492 30.6159Q23.6896 30.5908 23.6359 30.5543Q23.5822 30.5178 23.5366 30.4714Q23.4909 30.425 23.4551 30.3704Q23.4192 30.3158 23.3945 30.2551Q23.3698 30.1945 23.3572 30.1301Q23.3446 30.0657 23.3446 30L23.3446 22Q23.3446 21.9343 23.3572 21.8699Q23.3698 21.8055 23.3945 21.7449Q23.4192 21.6842 23.4551 21.6296Q23.4909 21.575 23.5366 21.5286Q23.5822 21.4822 23.6359 21.4457Q23.6896 21.4092 23.7492 21.3841Q23.8088 21.359 23.8721 21.3461Q23.9355 21.3333 24 21.3333Q24.0645 21.3333 24.1279 21.3461Q24.1912 21.359 24.2508 21.3841Q24.3104 21.4092 24.3641 21.4457Q24.4178 21.4822 24.4634 21.5286Q24.509 21.575 24.5449 21.6296Q24.5808 21.6842 24.6055 21.7449Q24.6302 21.8055 24.6428 21.8699Q24.6554 21.9343 24.6554 22Z"></path></g></g><path id="圆形 1" fill-rule="evenodd" style="fill:#7948EA" opacity="0" d="M83 39C83 60.5391 64.4198 78 41.5 78C18.5802 78 0 60.5391 0 39C0 17.4609 18.5802 0 41.5 0C64.4198 0 83 17.4609 83 39Z"></path><path  id="圆形 1" style="fill:#7948EA; opacity:1;" d="M84 39M84 39Q84 55.5869 71.5297 67.3059Q59.0859 79 41.5 79Q23.9141 79 11.4703 67.3059Q-1 55.5869 -1 39Q-1 22.4131 11.4703 10.6941Q23.914 -1 41.5 -0.999996Q59.086 -1 71.5297 10.6941Q84 22.4132 84 39ZM82 39Q82 23.2782 70.1601 12.1516Q58.2937 1 41.5 1Q24.7063 1 12.8399 12.1516Q1 23.2782 0.999996 39Q0.999985 54.7218 12.8399 65.8484Q24.7063 77 41.5 77Q58.2937 77.0001 70.1601 65.8484Q82 54.7218 82 39Z"></path></g><defs><rect id="path_0" x="0" y="0" width="48" height="48" rx="0" ry="0"/></defs></svg>