<svg xmlns="http://www.w3.org/2000/svg" xmlns:xlink="http://www.w3.org/1999/xlink" width="85" height="80" viewBox="0 0 85 80" fill="none"><g opacity="1"  transform="translate(1 1)"><mask id="mask-0" fill="white"><path id="圆形 1" fill-rule="evenodd" style="fill:#7948EA" d="M83 39C83 60.5391 64.4198 78 41.5 78C18.5802 78 0 60.5391 0 39C0 17.4609 18.5802 0 41.5 0C64.4198 0 83 17.4609 83 39Z"></path></mask><path id="圆形 1" fill-rule="evenodd" style="fill:#7948EA" opacity="0" d="M83 39C83 60.5391 64.4198 78 41.5 78C18.5802 78 0 60.5391 0 39C0 17.4609 18.5802 0 41.5 0C64.4198 0 83 17.4609 83 39Z"></path><path  id="圆形 1" style="fill:#7948EA; opacity:1;" d="M84 39M84 39Q84 55.5869 71.5297 67.3059Q59.0859 79 41.5 79Q23.9141 79 11.4703 67.3059Q-1 55.5869 -1 39Q-1 22.4131 11.4703 10.6941Q23.914 -1 41.5 -0.999996Q59.086 -1 71.5297 10.6941Q84 22.4132 84 39ZM82 39Q82 23.2782 70.1601 12.1516Q58.2937 1 41.5 1Q24.7063 1 12.8399 12.1516Q1 23.2782 0.999996 39Q0.999985 54.7218 12.8399 65.8484Q24.7063 77 41.5 77Q58.2937 77.0001 70.1601 65.8484Q82 54.7218 82 39Z"></path><g mask="url(#mask-0)"><g opacity="1"  transform="translate(18 15)"><mask id="bg-mask-1" fill="white"><use transform="translate(0 0)" xlink:href="#path_1"></use></mask><g mask="url(#bg-mask-1)" ><path  id="路径 1" style="fill:#7948EA; opacity:1;" d="M9.33333 6C9.33333 4.52724 10.5272 3.33333 12 3.33333L36 3.33333C37.4728 3.33333 38.6667 4.52724 38.6667 6L38.6667 44C38.6667 44.5422 38.0537 44.8577 37.6125 44.5425L30.6125 39.5425L31 39L31.3875 39.5425L24.3875 44.5425C24.1557 44.7081 23.8443 44.7081 23.6125 44.5425L16.6125 39.5425L17 39L17.3875 39.5425L10.3875 44.5425C9.94625 44.8577 9.33333 44.5422 9.33333 44L9.33333 6Q9.33333 5.93434 9.34614 5.86994Q9.35895 5.80554 9.38408 5.74488Q9.40921 5.68421 9.44569 5.62962Q9.48216 5.57502 9.52859 5.52859Q9.57502 5.48217 9.62962 5.44569Q9.68421 5.40921 9.74488 5.38408Q9.80554 5.35895 9.86994 5.34614Q9.93434 5.33333 10 5.33333Q10.0657 5.33333 10.1301 5.34614Q10.1945 5.35895 10.2551 5.38408Q10.3158 5.40921 10.3704 5.44569Q10.425 5.48217 10.4714 5.52859Q10.5178 5.57502 10.5543 5.62962Q10.5908 5.68421 10.6159 5.74488Q10.641 5.80554 10.6539 5.86994Q10.6667 5.93434 10.6667 6L10.6667 44L10 44L9.61251 43.4575L16.6125 38.4575C16.8443 38.2919 17.1557 38.2919 17.3875 38.4575L24.3875 43.4575L24 44L23.6125 43.4575L30.6125 38.4575C30.8443 38.2919 31.1557 38.2919 31.3875 38.4575L38.3875 43.4575L38 44L37.3333 44L37.3333 6C37.3333 5.26362 36.7364 4.66667 36 4.66667L12 4.66667C11.2636 4.66667 10.6667 5.26362 10.6667 6Q10.6667 6.06566 10.6539 6.13006Q10.641 6.19446 10.6159 6.25512Q10.5908 6.31578 10.5543 6.37038Q10.5178 6.42498 10.4714 6.4714Q10.425 6.51783 10.3704 6.55431Q10.3158 6.59079 10.2551 6.61592Q10.1945 6.64105 10.1301 6.65386Q10.0657 6.66667 10 6.66667Q9.93434 6.66667 9.86994 6.65386Q9.80554 6.64105 9.74488 6.61592Q9.68421 6.59079 9.62962 6.55431Q9.57502 6.51783 9.52859 6.47141Q9.48216 6.42498 9.44569 6.37038Q9.40921 6.31578 9.38408 6.25512Q9.35895 6.19446 9.34614 6.13006Q9.33333 6.06566 9.33333 6Z"></path><path  id="路径 2" style="fill:#7948EA; opacity:1;" d="M18 21.3235L30 21.3235Q30.0657 21.3235 30.1301 21.3365Q30.1945 21.3495 30.2551 21.375Q30.3158 21.4005 30.3704 21.4375Q30.425 21.4745 30.4714 21.5216Q30.5178 21.5688 30.5543 21.6242Q30.5908 21.6796 30.6159 21.7411Q30.641 21.8027 30.6539 21.868Q30.6667 21.9334 30.6667 22Q30.6667 22.0666 30.6539 22.132Q30.641 22.1973 30.6159 22.2589Q30.5908 22.3204 30.5543 22.3758Q30.5178 22.4312 30.4714 22.4784Q30.425 22.5255 30.3704 22.5625Q30.3158 22.5995 30.2551 22.625Q30.1945 22.6505 30.1301 22.6635Q30.0657 22.6765 30 22.6765L18 22.6765Q17.9343 22.6765 17.8699 22.6635Q17.8055 22.6505 17.7449 22.625Q17.6842 22.5995 17.6296 22.5625Q17.575 22.5255 17.5286 22.4784Q17.4822 22.4312 17.4457 22.3758Q17.4092 22.3204 17.3841 22.2589Q17.359 22.1973 17.3461 22.132Q17.3333 22.0666 17.3333 22Q17.3333 21.9334 17.3461 21.868Q17.359 21.8027 17.3841 21.7411Q17.4092 21.6796 17.4457 21.6242Q17.4822 21.5688 17.5286 21.5216Q17.575 21.4745 17.6296 21.4375Q17.6842 21.4005 17.7449 21.375Q17.8055 21.3495 17.8699 21.3365Q17.9343 21.3235 18 21.3235Z"></path><path  id="路径 3" style="fill:#7948EA; opacity:1;" d="M18 29.3446L30 29.3446Q30.0657 29.3446 30.1301 29.3572Q30.1945 29.3698 30.2551 29.3945Q30.3158 29.4192 30.3704 29.4551Q30.425 29.4909 30.4714 29.5366Q30.5178 29.5822 30.5543 29.6359Q30.5908 29.6896 30.6159 29.7492Q30.641 29.8088 30.6539 29.8721Q30.6667 29.9355 30.6667 30Q30.6667 30.0645 30.6539 30.1279Q30.641 30.1912 30.6159 30.2508Q30.5908 30.3104 30.5543 30.3641Q30.5178 30.4178 30.4714 30.4634Q30.425 30.509 30.3704 30.5449Q30.3158 30.5808 30.2551 30.6055Q30.1945 30.6302 30.1301 30.6428Q30.0657 30.6554 30 30.6554L18 30.6554Q17.9343 30.6554 17.8699 30.6428Q17.8055 30.6302 17.7449 30.6055Q17.6842 30.5808 17.6296 30.5449Q17.575 30.509 17.5286 30.4634Q17.4822 30.4178 17.4457 30.3641Q17.4092 30.3104 17.3841 30.2508Q17.359 30.1912 17.3461 30.1279Q17.3333 30.0645 17.3333 30Q17.3333 29.9355 17.3461 29.8721Q17.359 29.8088 17.3841 29.7492Q17.4092 29.6896 17.4457 29.6359Q17.4822 29.5822 17.5286 29.5366Q17.575 29.4909 17.6296 29.4551Q17.6842 29.4192 17.7449 29.3945Q17.8055 29.3698 17.8699 29.3572Q17.9343 29.3446 18 29.3446Z"></path><path  id="路径 4" style="fill:#7948EA; opacity:1;" d="M18 13.3235L30 13.3235Q30.0657 13.3235 30.1301 13.3365Q30.1945 13.3495 30.2551 13.375Q30.3158 13.4005 30.3704 13.4375Q30.425 13.4745 30.4714 13.5216Q30.5178 13.5688 30.5543 13.6242Q30.5908 13.6796 30.6159 13.7411Q30.641 13.8027 30.6539 13.868Q30.6667 13.9334 30.6667 14Q30.6667 14.0666 30.6539 14.132Q30.641 14.1973 30.6159 14.2589Q30.5908 14.3204 30.5543 14.3758Q30.5178 14.4312 30.4714 14.4784Q30.425 14.5255 30.3704 14.5625Q30.3158 14.5995 30.2551 14.625Q30.1945 14.6505 30.1301 14.6635Q30.0657 14.6765 30 14.6765L18 14.6765Q17.9343 14.6765 17.8699 14.6635Q17.8055 14.6505 17.7449 14.625Q17.6842 14.5995 17.6296 14.5625Q17.575 14.5255 17.5286 14.4784Q17.4822 14.4312 17.4457 14.3758Q17.4092 14.3204 17.3841 14.2589Q17.359 14.1973 17.3461 14.132Q17.3333 14.0666 17.3333 14Q17.3333 13.9334 17.3461 13.868Q17.359 13.8027 17.3841 13.7411Q17.4092 13.6796 17.4457 13.6242Q17.4822 13.5688 17.5286 13.5216Q17.575 13.4745 17.6296 13.4375Q17.6842 13.4005 17.7449 13.375Q17.8055 13.3495 17.8699 13.3365Q17.9343 13.3235 18 13.3235Z"></path></g></g></g></g><defs><rect id="path_1" x="0" y="0" width="48" height="48" rx="0" ry="0"/></defs></svg>