<svg xmlns="http://www.w3.org/2000/svg" xmlns:xlink="http://www.w3.org/1999/xlink" width="65" height="65" viewBox="0 0 65 65" fill="none"><g opacity="1"  transform="translate(10 5)"><mask id="mask-0" fill="white"><path id="圆形 1" fill-rule="evenodd" fill="url(#linear_0)" d="M45 22.5C45 34.9264 34.9264 45 22.5 45C10.0736 45 0 34.9264 0 22.5C0 10.0736 10.0736 0 22.5 0C34.9264 0 45 10.0736 45 22.5Z"></path></mask><g filter="url(#filter_1)"><path id="圆形 1" fill-rule="evenodd" fill="url(#linear_0)" opacity="1" d="M45 22.5C45 34.9264 34.9264 45 22.5 45C10.0736 45 0 34.9264 0 22.5C0 10.0736 10.0736 0 22.5 0C34.9264 0 45 10.0736 45 22.5Z"></path></g><g mask="url(#mask-0)"><path id="圆形 2" fill-rule="evenodd" style="fill:#FFFFFF" d="M35 22.5C35 29.4036 29.4036 35 22.5 35C15.5964 35 10 29.4036 10 22.5C10 15.5964 15.5964 10 22.5 10C29.4036 10 35 15.5964 35 22.5Z"></path></g><g mask="url(#mask-0)"><path id="减去顶层" fill-rule="evenodd" style="fill:#FFFFFF" opacity="1" d="M22.5 32.5C28.0228 32.5 32.5 28.0228 32.5 22.5C32.5 16.9771 28.0228 12.5 22.5 12.5C16.9771 12.5 12.5 16.9771 12.5 22.5C12.5 28.0228 16.9771 32.5 22.5 32.5ZM16.8432 23.9142L21.0858 28.1568C21.8636 28.9346 23.1364 28.9346 23.9142 28.1568L28.1568 23.9142C28.9346 23.1364 28.9346 21.8636 28.1568 21.0858L23.9142 16.8432C23.1364 16.0654 21.8636 16.0654 21.0858 16.8432L16.8432 21.0858C16.0654 21.8636 16.0654 23.1364 16.8432 23.9142ZM22.5 27.2402Q22.7095 27.2402 22.8535 27.0961L27.0961 22.8535C27.1922 22.7575 27.2402 22.6397 27.2402 22.5Q27.2402 22.2905 27.0961 22.1465L22.8535 17.9039Q22.7095 17.7598 22.5 17.7598Q22.2905 17.7598 22.1465 17.9039L17.9039 22.1465Q17.7598 22.2905 17.7598 22.5Q17.7598 22.7095 17.9039 22.8535L22.1465 27.0961C22.2425 27.1922 22.3603 27.2402 22.5 27.2402Z"></path></g><g mask="url(#mask-0)"><path id="圆形 4" fill-rule="evenodd" style="fill:#E6FFFA" d="M13.8896 1.71271C11.1598 2.84344 8.67942 4.50078 6.5901 6.5901C4.50078 8.67942 2.84344 11.1598 1.71271 13.8896C0.581978 16.6194 0 19.5453 0 22.5C0 25.4547 0.581978 28.3806 1.71271 31.1104C2.84344 33.8402 4.50078 36.3206 6.5901 38.4099C8.67942 40.4992 11.1598 42.1566 13.8896 43.2873C16.6194 44.418 19.5453 45 22.5 45L22.5 22.5L22.5 1.37773e-15C19.5453 1.73958e-15 16.6194 0.58198 13.8896 1.71271Z"></path></g></g><defs><linearGradient id="linear_0" x1="0%" y1="-11.98%" x2="100%" y2="100%" gradientUnits="objectBoundingBox"><stop offset="0" stop-color="#5CFF92" stop-opacity="1" /><stop offset="1" stop-color="#37D9FA" stop-opacity="1" /></linearGradient><filter id="filter_1" x="0" y="0" width="65" height="70" filterUnits="userSpaceOnUse" color-interpolation-filters="sRGB"><feFlood flood-opacity="0" result="feFloodId"/>
        <feColorMatrix in="SourceAlpha" type="matrix" values="0 0 0 0 0 0 0 0 0 0 0 0 0 0 0 0 0 0 127 0" result="hardAlpha"/>
        
        <feOffset dx="0" dy="5"/>
        <feGaussianBlur stdDeviation="5"/>
         <feComposite in2="hardAlpha" operator="out"/>
        <feColorMatrix type="matrix" values="0 0 0 0 0.7058823529411765 0 0 0 0 0.9803921568627451 0 0 0 0 0.9254901960784314 0 0 0 1 0"/>
        <feBlend mode="normal" in2="BackgroundImageFix" result="dropShadow_1"/>
        <feBlend mode="normal" in="SourceGraphic" in2="dropShadow_2" result="shape"/></filter></defs></svg>