<svg version="1.1" id="Layer_1" xmlns="http://www.w3.org/2000/svg" xmlns:xlink="http://www.w3.org/1999/xlink" x="0px" y="0px"
	 width="100%" viewBox="0 0 1496 612" enable-background="new 0 0 1496 612" xml:space="preserve">
<path fill="#FFFFFF" opacity="1.000000" stroke="none" 
	d="
M900.000000,613.000000 
	C600.035461,613.000000 300.570892,613.000000 1.053180,613.000000 
	C1.053180,409.059601 1.053180,205.119217 1.053180,1.089403 
	C499.548035,1.089403 998.096130,1.089403 1496.822021,1.089403 
	C1496.822021,204.999878 1496.822021,408.999908 1496.822021,613.000000 
	C1298.118896,613.000000 1099.309448,613.000000 900.000000,613.000000 
M207.995132,253.520813 
	C204.640717,259.628815 200.358200,265.426910 198.186752,271.929901 
	C195.907410,278.756042 191.944489,281.706970 185.301575,283.082886 
	C171.046631,286.035461 158.377441,292.759735 147.053284,301.660828 
	C133.245224,312.514313 122.801178,326.085419 115.825500,342.408020 
	C106.949631,363.177032 105.269295,384.716461 109.878876,406.380615 
	C115.200600,431.391754 129.167526,451.576447 149.606323,466.830872 
	C165.329803,478.565979 183.042191,486.702911 202.944580,486.761200 
	C311.609009,487.079529 420.274750,486.923737 528.940063,486.974304 
	C563.639160,486.990479 590.953369,472.153503 611.426147,444.870636 
	C627.258057,423.772369 634.084778,399.783600 631.232666,373.165253 
	C629.067261,352.956573 622.302734,334.798096 609.594849,318.884308 
	C599.150085,305.804474 586.560852,295.436676 571.170227,288.721588 
	C566.263367,286.580688 563.317322,283.560638 561.738892,278.154877 
	C559.471191,270.388306 556.518066,262.701385 552.872620,255.477432 
	C531.801208,213.720779 498.672150,185.718552 454.328949,171.314758 
	C416.902283,159.157654 379.902649,161.997665 343.672363,176.679825 
	C323.521912,184.845673 306.224792,197.357666 290.391174,212.121460 
	C288.212463,214.152969 284.722198,215.227890 281.666290,215.768265 
	C276.463348,216.688278 271.030029,216.360764 265.856567,217.382874 
	C242.307648,222.035385 222.731339,233.272263 207.995132,253.520813 
M719.020325,239.503647 
	C712.488281,234.974152 706.350708,229.644577 699.299561,226.167953 
	C693.643677,223.379272 690.493774,219.750259 688.783813,214.005615 
	C683.411377,195.957016 673.442017,180.443115 660.948669,166.676666 
	C640.883484,144.566666 615.949280,130.496490 586.556824,125.122704 
	C567.960327,121.722740 549.264526,121.866798 530.697388,126.519424 
	C517.393494,129.853149 504.895905,134.864609 492.696503,142.059769 
	C495.411774,146.779892 498.047638,151.151047 500.467743,155.638565 
	C502.268738,158.978165 504.291229,159.599426 507.669189,157.544937 
	C525.268127,146.841049 544.786743,143.084122 564.977783,143.508118 
	C587.026062,143.971100 607.454895,150.531250 625.739624,163.141190 
	C639.895996,172.904022 651.413635,185.094482 660.116821,200.010406 
	C666.376099,210.737778 670.329285,222.306976 673.532104,234.177994 
	C674.359314,237.244156 675.764893,238.864700 678.877808,239.836349 
	C683.602600,241.311172 688.378540,243.015686 692.659058,245.454254 
	C715.380249,258.398346 728.142273,278.102936 728.557922,304.213928 
	C728.851013,322.626923 721.357544,338.942352 708.296997,352.142212 
	C697.423523,363.131561 684.788147,371.078796 668.773804,372.297058 
	C666.718201,372.453461 663.877319,372.395782 663.969727,375.982117 
	C664.094116,380.810577 663.837830,385.654755 664.133606,390.468292 
	C664.197876,391.513947 665.910034,393.298401 666.861450,393.297241 
	C670.149109,393.293304 673.482300,392.877075 676.715637,392.215027 
	C697.977478,387.861481 714.965942,376.508514 728.524841,359.872955 
	C740.463684,345.225067 747.972595,328.699677 748.978149,309.528076 
	C749.696655,295.828583 747.346375,282.659760 741.797729,270.213806 
	C736.615112,258.589111 729.565918,248.143967 719.020325,239.503647 
M1258.197876,311.123871 
	C1258.488037,312.854370 1258.993530,314.579987 1259.033081,316.316162 
	C1259.278442,327.121429 1259.061035,337.951721 1259.742676,348.726562 
	C1260.096680,354.324280 1259.171265,357.792603 1253.654541,358.735657 
	C1248.318848,359.647766 1242.721924,359.661469 1237.299194,359.262268 
	C1231.688232,358.849121 1226.163452,357.356140 1220.565308,356.598907 
	C1219.470581,356.450806 1218.212891,357.507721 1217.030273,358.008789 
	C1217.906372,358.788818 1218.672729,359.792267 1219.687256,360.290100 
	C1220.856079,360.863739 1222.268433,360.915070 1223.533081,361.323334 
	C1235.149536,365.073822 1246.723145,368.889954 1248.177979,384.701904 
	C1253.133423,382.633698 1257.679077,381.132019 1261.845337,378.916840 
	C1271.010742,374.043549 1275.185669,366.641479 1275.051514,355.786682 
	C1274.610962,320.132263 1275.128418,284.466339 1274.735229,248.810791 
	C1274.633301,239.572144 1276.005859,231.690521 1283.714233,225.869537 
	C1283.911865,225.720322 1283.870728,225.254959 1284.121826,224.117493 
	C1277.650391,219.629135 1270.926636,214.965912 1264.194946,210.297073 
	C1262.231567,212.881332 1260.888428,214.975693 1259.215698,216.761276 
	C1257.468262,218.626511 1255.489014,221.530670 1253.462891,221.660080 
	C1244.885498,222.208008 1236.252808,221.892380 1227.952026,221.892380 
	C1227.520630,220.886032 1227.279053,220.584839 1227.278564,220.283218 
	C1227.247192,201.286896 1227.177490,182.290039 1227.337524,163.295166 
	C1227.349609,161.861160 1228.785645,160.214935 1229.950439,159.061874 
	C1232.323486,156.712631 1234.963379,154.632706 1238.303101,151.740707 
	C1230.461670,148.042831 1223.978882,144.738785 1217.291992,141.919479 
	C1212.873657,140.056671 1211.792969,140.987991 1211.764160,146.121536 
	C1211.680542,160.951721 1211.716919,175.782623 1211.710693,190.613235 
	C1211.706543,200.744537 1211.709961,210.875839 1211.709961,221.014160 
	C1194.881836,224.126175 1179.424194,221.483521 1165.298584,211.084167 
	C1164.162109,268.925354 1163.053955,325.320618 1161.928955,382.581116 
	C1165.262207,381.606506 1168.493774,380.996887 1171.440186,379.726288 
	C1176.646729,377.481171 1179.643555,374.177368 1179.428467,367.554291 
	C1178.871582,350.408752 1179.238770,333.233154 1179.236938,316.069580 
	C1179.236694,314.476868 1179.236816,312.884155 1179.236816,310.988861 
	C1205.628662,310.988861 1231.437378,310.988861 1258.197876,311.123871 
M845.674744,336.182220 
	C864.369263,317.360352 881.451599,297.186829 896.656799,275.435089 
	C900.580444,269.822113 904.649414,264.402405 912.099731,263.128693 
	C913.782043,262.841095 915.359985,261.943054 918.347168,260.809509 
	C911.465393,256.083405 905.542175,252.015625 899.619019,247.947830 
	C899.841980,247.467041 900.064941,246.986252 900.287964,246.505463 
	C941.585327,246.505463 982.882690,246.505463 1024.180054,246.505463 
	C1024.471436,246.001083 1024.762817,245.496689 1025.054321,244.992310 
	C1017.328613,237.682495 1009.602905,230.372665 1001.570190,222.772324 
	C997.990234,227.495438 994.394836,231.844696 991.267700,236.508011 
	C989.297974,239.445328 987.122009,240.621048 983.518921,240.610428 
	C920.362244,240.424271 857.205200,240.373291 794.048218,240.306137 
	C793.123230,240.305145 792.198120,240.471512 791.210999,240.565704 
	C793.570740,249.292862 794.302490,249.722260 802.334717,248.145050 
	C805.418335,247.539551 808.560913,246.876724 811.679382,246.862656 
	C837.008606,246.748276 862.338501,246.777771 887.668152,246.785980 
	C888.589172,246.786285 889.510071,247.020020 890.901917,247.208847 
	C890.146179,249.151550 889.740112,250.755249 888.950500,252.140350 
	C878.005981,271.338745 867.466736,290.788971 855.888550,309.599091 
	C845.481201,326.506775 832.903748,341.496368 811.290588,346.475494 
	C816.099487,353.256927 820.666992,359.522797 825.027222,365.929688 
	C826.866760,368.632751 828.581482,369.726379 832.007751,368.298370 
	C835.177368,366.977356 838.752686,366.508209 842.198425,365.991425 
	C860.929504,363.182220 879.634705,360.142548 898.427124,357.813904 
	C923.043457,354.763641 947.737732,352.346832 972.384705,349.536316 
	C975.813232,349.145355 977.328796,349.855957 978.161377,353.588196 
	C979.382324,359.061676 981.461365,364.375519 983.540527,369.612152 
	C984.549133,372.152313 986.512329,374.581940 989.695312,372.249084 
	C995.641296,367.891113 1000.422058,362.744385 1000.153748,354.603546 
	C999.870911,346.022766 996.865112,338.493835 992.057739,331.452301 
	C977.821411,310.599396 958.385803,295.229095 938.467651,280.372223 
	C937.523865,279.668243 935.659302,280.198853 934.223572,280.154510 
	C934.621277,281.397339 934.660706,282.981628 935.470642,283.831604 
	C946.772095,295.691406 956.780640,308.532562 964.845947,322.798645 
	C968.304749,328.916779 971.188171,335.360168 974.780945,342.552643 
	C927.483337,344.188477 881.503662,345.778748 833.914246,347.424683 
	C838.332886,343.201416 841.750977,339.934509 845.674744,336.182220 
M1089.294800,239.861496 
	C1090.154663,241.042084 1091.713867,242.197342 1091.757568,243.407501 
	C1091.992676,249.897736 1091.847900,256.401642 1091.839844,262.900818 
	C1091.834473,267.156891 1091.838745,271.412994 1091.838745,276.141052 
	C1078.750732,276.141052 1066.522339,276.141052 1054.132202,276.141052 
	C1057.235352,284.604706 1057.180420,284.128693 1065.068359,283.219116 
	C1073.878540,282.203186 1082.801758,282.166412 1091.865845,281.693573 
	C1091.865845,300.186340 1091.566895,317.513397 1091.983643,334.823212 
	C1092.215576,344.460175 1092.181641,353.460449 1082.651123,359.243256 
	C1081.884399,359.708405 1081.491455,362.601807 1082.098145,363.225220 
	C1086.231689,367.473480 1090.679810,371.415771 1094.489502,374.957642 
	C1112.860962,359.174835 1131.492676,343.168457 1150.124512,327.162048 
	C1149.768188,326.551910 1149.411865,325.941772 1149.055664,325.331665 
	C1135.036011,332.052277 1122.090332,340.884247 1108.021484,348.495148 
	C1108.021484,326.138977 1108.021484,304.282867 1108.021484,282.058411 
	C1124.118286,282.058411 1139.860596,282.058411 1157.306885,282.058411 
	C1150.001465,275.818024 1143.809448,270.528809 1137.397705,265.051819 
	C1135.956299,266.732483 1133.628174,269.757446 1130.955200,272.438782 
	C1129.525391,273.873169 1127.560791,275.541199 1125.734863,275.672211 
	C1119.962280,276.086243 1114.141235,275.825012 1108.113403,275.825012 
	C1108.113403,263.634674 1108.113403,251.763748 1108.113403,239.737061 
	C1109.346558,239.737061 1110.167358,239.734039 1110.988281,239.737503 
	C1123.153198,239.788879 1135.318115,239.875641 1147.482788,239.836899 
	C1148.633789,239.833237 1149.854004,239.155502 1150.862793,238.510330 
	C1151.035034,238.400101 1150.556885,236.566010 1149.941772,236.040329 
	C1144.013550,230.974823 1137.991455,226.018982 1131.585449,220.689926 
	C1129.402710,223.372452 1127.439331,225.791489 1125.469360,228.205139 
	C1122.760864,231.523468 1119.754761,233.451187 1114.973145,233.272995 
	C1103.490723,232.845032 1091.981201,233.159241 1080.482544,233.147598 
	C1075.745361,233.142792 1075.141235,232.183624 1077.441406,227.881226 
	C1081.981567,219.388702 1086.810547,211.046066 1091.173218,202.465088 
	C1093.247803,198.384689 1095.884644,196.887131 1100.536743,196.965256 
	C1118.196533,197.261795 1135.864014,197.114700 1153.528564,197.104065 
	C1155.430786,197.102905 1157.333130,196.910004 1159.235352,196.806061 
	C1159.511597,196.322189 1159.787842,195.838333 1160.063965,195.354462 
	C1154.584595,189.636642 1149.105225,183.918839 1143.557739,178.129959 
	C1142.510010,178.934845 1141.600098,179.295380 1141.249268,179.953842 
	C1135.623657,190.509415 1126.383423,192.645493 1115.533325,191.136429 
	C1115.042847,191.068222 1114.534668,191.128006 1114.034668,191.128006 
	C1108.670166,191.128036 1103.305664,191.128036 1097.118286,191.128036 
	C1099.934204,184.229050 1102.067017,178.477249 1104.611206,172.913620 
	C1107.344238,166.937302 1109.208252,160.297470 1115.687866,156.758408 
	C1116.092163,156.537643 1115.732422,153.218582 1114.891479,152.701187 
	C1110.384399,149.928467 1105.555054,147.687119 1100.947998,145.066925 
	C1096.974365,142.806961 1095.066895,143.752258 1093.941162,148.246262 
	C1091.169678,159.310760 1088.205078,170.334900 1084.988892,181.278488 
	C1076.787109,209.186279 1066.984741,236.425491 1050.704956,260.870697 
	C1050.161621,261.686462 1050.198730,262.888672 1049.965210,263.910767 
	C1051.896973,263.669556 1053.034424,262.900330 1053.890381,261.892181 
	C1056.690063,258.594940 1060.018921,255.545303 1062.004639,251.796783 
	C1067.807983,240.841797 1076.821289,237.807587 1089.294800,239.861496 
M899.500000,168.050949 
	C873.474243,168.050949 847.448547,168.050949 821.358337,168.050949 
	C821.884277,175.963165 824.019470,177.386002 829.903381,175.362335 
	C832.848267,174.349487 836.026794,173.468536 839.101562,173.462479 
	C888.374878,173.365356 937.648499,173.419281 986.922058,173.438614 
	C989.503906,173.439636 992.085754,173.438751 994.667603,173.438751 
	C994.982117,172.986786 995.296631,172.534836 995.611145,172.082870 
	C988.494324,164.410080 979.678528,158.606415 971.656006,151.309601 
	C968.728882,156.017578 966.087219,160.035980 963.692810,164.196640 
	C962.020447,167.102768 959.841675,168.142593 956.432007,168.113434 
	C937.789185,167.953857 919.144226,168.045593 899.500000,168.050949 
M981.685425,438.599060 
	C981.685425,436.089752 981.685425,433.580414 981.685425,431.071106 
	C983.590698,432.114532 984.551208,433.367188 985.378296,434.702484 
	C991.671875,444.862335 998.090881,454.949402 1004.139221,465.253754 
	C1006.511230,469.294861 1009.468872,470.219757 1013.913574,468.929321 
	C1013.913574,452.706207 1013.913574,436.475983 1013.913574,420.111633 
	C1011.971375,420.111633 1010.086609,420.111633 1007.421143,420.111633 
	C1007.421143,432.224518 1007.421143,444.015503 1007.421143,455.806488 
	C1005.257446,454.900696 1004.237366,453.733948 1003.430664,452.434723 
	C997.739075,443.268036 991.853821,434.209106 986.525879,424.834198 
	C983.695251,419.853485 980.191040,418.689301 975.103394,420.435547 
	C975.103394,436.688965 975.103394,452.767181 975.103394,469.379578 
	C977.445251,469.260376 979.478516,469.156891 981.677551,469.044952 
	C981.677551,458.858459 981.677551,449.216248 981.685425,438.599060 
M1160.976196,464.564178 
	C1169.359619,470.527191 1178.373657,472.093964 1187.617310,467.173950 
	C1202.466797,459.270142 1204.664429,435.475891 1191.991577,424.364197 
	C1183.093750,416.562439 1161.912231,415.429474 1154.928467,432.168091 
	C1150.640747,442.444885 1152.481079,455.310822 1160.976196,464.564178 
M1053.704346,437.903503 
	C1057.672729,441.791504 1057.689575,445.187927 1053.849121,449.691223 
	C1048.862183,455.538910 1044.907227,462.266754 1040.145142,469.139557 
	C1045.015381,469.996002 1048.203369,469.925476 1050.675415,465.686188 
	C1053.960083,460.053436 1058.008545,454.866058 1061.934692,449.189606 
	C1065.937134,455.242859 1069.630859,460.531891 1072.999390,466.020599 
	C1075.533325,470.149719 1078.837402,469.874786 1083.331665,468.744843 
	C1078.455200,461.636414 1074.351562,454.760254 1069.322388,448.645203 
	C1066.101440,444.728760 1066.936890,442.214478 1069.546509,438.770752 
	C1074.005859,432.886536 1078.091553,426.719208 1082.452637,420.501862 
	C1077.588501,418.581543 1074.330444,419.709412 1071.905640,423.731049 
	C1069.936157,426.997437 1067.859985,430.213745 1065.612305,433.292542 
	C1064.444214,434.892517 1062.802246,436.146667 1061.293579,437.636871 
	C1057.773926,432.315369 1054.677490,427.831818 1051.794678,423.214844 
	C1049.314453,419.242554 1045.977051,418.958618 1041.439209,420.334167 
	C1045.531128,426.237122 1049.380981,431.790741 1053.704346,437.903503 
M1138.723999,460.873932 
	C1141.705566,470.174438 1141.813477,470.264282 1148.671875,468.843079 
	C1148.488403,468.069489 1148.381470,467.275574 1148.113647,466.540314 
	C1142.835571,452.049194 1137.351318,437.628723 1132.384155,423.032135 
	C1131.213867,419.593079 1129.016968,419.431183 1126.746826,419.863068 
	C1125.052368,420.185394 1122.841553,421.668427 1122.227905,423.187073 
	C1117.204468,435.616791 1112.476562,448.166565 1107.723022,460.704163 
	C1106.711792,463.371063 1105.962402,466.137207 1105.104248,468.820740 
	C1109.471802,470.616272 1111.654297,469.390045 1112.725586,465.812439 
	C1113.249756,464.061920 1113.990479,462.364777 1114.381104,460.588074 
	C1115.318726,456.323761 1117.773315,454.609283 1122.171021,455.054291 
	C1125.466309,455.387665 1128.854126,455.433472 1132.140503,455.067200 
	C1136.207520,454.613922 1138.034546,456.333344 1138.723999,460.873932 
M955.843933,459.009979 
	C951.942200,464.965820 945.826721,464.875763 940.170593,463.648651 
	C935.190491,462.568298 933.078003,458.088715 932.768005,453.002838 
	C932.637207,450.856995 932.233582,448.719574 932.217957,446.576385 
	C932.153687,437.788177 932.191040,428.999237 932.191040,420.132629 
	C929.977173,420.132629 928.080261,420.132629 925.958984,420.132629 
	C925.958984,431.911072 925.220581,443.414337 926.185242,454.772949 
	C927.003845,464.411621 931.610107,468.340729 941.404602,469.681732 
	C952.589722,471.213104 964.156738,465.942017 964.352417,452.427399 
	C964.507935,441.684052 964.383728,430.936646 964.383728,419.998108 
	C962.248901,419.998108 960.315063,419.998108 957.947449,419.998108 
	C957.947449,430.047577 958.080139,439.837738 957.865967,449.620361 
	C957.802429,452.518646 956.762268,455.395569 955.843933,459.009979 
M1282.458618,177.927979 
	C1283.636353,177.211533 1284.814209,176.495102 1286.205322,175.648865 
	C1280.469238,169.496338 1275.711060,163.153809 1269.274780,159.922775 
	C1259.162231,176.515121 1249.390747,192.473663 1239.771973,208.523697 
	C1239.225708,209.435211 1239.929443,211.095840 1240.051392,212.407791 
	C1241.274170,212.092575 1242.901733,212.170197 1243.652344,211.396713 
	C1247.699585,207.225677 1251.116699,202.354065 1255.522339,198.638672 
	C1263.998413,191.490753 1272.991699,184.956161 1282.458618,177.927979 
M1188.430420,208.193008 
	C1197.061523,200.796982 1198.833374,192.468430 1191.728149,186.096649 
	C1183.790649,178.978592 1174.703125,173.130722 1166.001831,166.889343 
	C1164.561523,165.856232 1162.536743,165.638168 1160.781982,165.043472 
	C1160.490234,165.405899 1160.198608,165.768311 1159.906860,166.130722 
	C1160.693604,167.423920 1161.398438,168.776291 1162.282349,169.999252 
	C1164.996704,173.754669 1168.214722,177.219101 1170.443237,181.236908 
	C1174.840332,189.164032 1178.679932,197.399353 1182.805054,205.479126 
	C1183.826660,207.479950 1184.618042,210.075668 1188.430420,208.193008 
M910.122742,422.489868 
	C905.995422,429.211548 901.868103,435.933228 897.301514,443.370300 
	C893.025635,436.116547 889.098938,429.603333 885.327454,423.001465 
	C883.053955,419.021851 879.888489,419.019501 875.665344,420.277527 
	C881.266724,429.095184 886.740967,437.414642 891.849121,445.953125 
	C893.208801,448.225922 893.913818,451.137817 894.098206,453.812897 
	C894.446411,458.864471 894.198853,463.957062 894.198853,468.891754 
	C900.995117,470.041382 901.012390,470.024078 900.969238,464.319031 
	C900.947815,461.489197 901.140869,458.642365 900.895813,455.832977 
	C900.501221,451.309753 901.791992,447.516357 904.377930,443.767303 
	C908.991394,437.079010 913.181580,430.097809 917.506348,423.212463 
	C918.130615,422.218597 918.519104,421.076630 919.016663,420.003174 
	C918.706299,419.591064 918.395935,419.178986 918.085571,418.766876 
	C915.575378,419.806763 913.065186,420.846619 910.122742,422.489868 
M1090.736572,448.499390 
	C1090.736572,455.402405 1090.736572,462.305420 1090.736572,469.499878 
	C1093.880371,469.122559 1097.612427,471.701843 1097.648438,466.571808 
	C1097.756592,451.175812 1097.687378,435.778564 1097.687378,420.057312 
	C1095.302490,420.057312 1093.247803,420.057312 1090.739014,420.057312 
	C1090.739014,429.319885 1090.739014,438.409668 1090.736572,448.499390 
M1233.506348,441.294525 
	C1229.853271,441.309479 1226.200073,441.321289 1222.546997,441.340088 
	C1217.363647,441.366791 1217.089233,441.772827 1218.772705,447.490509 
	C1230.750610,447.490509 1242.854858,447.561951 1254.954346,447.356140 
	C1255.932251,447.339508 1256.877930,445.420776 1257.838623,444.385956 
	C1256.702515,443.350464 1255.602661,441.470062 1254.424316,441.419464 
	C1247.794556,441.134827 1241.145996,441.290466 1233.506348,441.294525 
M851.280396,441.246460 
	C841.951294,441.275909 832.622192,441.294281 823.293152,441.338989 
	C817.776489,441.365387 817.648682,441.564178 819.264709,447.022095 
	C832.144897,447.022095 845.025024,447.022095 858.197388,447.022095 
	C858.086304,445.005066 857.998169,443.403809 857.879211,441.244202 
	C855.790222,441.244202 853.998413,441.244202 851.280396,441.246460 
z"/>
<path fill="#FFE17D" opacity="1.000000" stroke="none" 
	d="
M208.231598,253.251282 
	C222.731339,233.272263 242.307648,222.035385 265.856567,217.382874 
	C271.030029,216.360764 276.463348,216.688278 281.666290,215.768265 
	C284.722198,215.227890 288.212463,214.152969 290.391174,212.121460 
	C306.224792,197.357666 323.521912,184.845673 343.672363,176.679825 
	C379.902649,161.997665 416.902283,159.157654 454.328949,171.314758 
	C498.672150,185.718552 531.801208,213.720779 552.872620,255.477432 
	C556.518066,262.701385 559.471191,270.388306 561.738892,278.154877 
	C563.317322,283.560638 566.263367,286.580688 571.170227,288.721588 
	C586.560852,295.436676 599.150085,305.804474 609.594849,318.884308 
	C622.302734,334.798096 629.067261,352.956573 631.232666,373.165253 
	C634.084778,399.783600 627.258057,423.772369 611.426147,444.870636 
	C590.953369,472.153503 563.639160,486.990479 528.940063,486.974304 
	C420.274750,486.923737 311.609009,487.079529 202.944580,486.761200 
	C183.042191,486.702911 165.329803,478.565979 149.606323,466.830872 
	C129.167526,451.576447 115.200600,431.391754 109.878876,406.380615 
	C105.269295,384.716461 106.949631,363.177032 115.825500,342.408020 
	C122.801178,326.085419 133.245224,312.514313 147.053284,301.660828 
	C158.377441,292.759735 171.046631,286.035461 185.301575,283.082886 
	C191.944489,281.706970 195.907410,278.756042 198.186752,271.929901 
	C200.358200,265.426910 204.640717,259.628815 208.231598,253.251282 
M147.883270,329.385498 
	C126.167198,354.890778 121.825371,389.901428 136.698074,419.343201 
	C152.449951,450.525360 178.612778,466.675293 213.318848,466.821533 
	C316.972473,467.258331 420.629181,466.986176 524.284668,466.959778 
	C540.167236,466.955719 555.194458,463.663910 569.100586,455.563568 
	C591.155884,442.716370 604.750549,423.491852 609.605530,398.896271 
	C613.900940,377.135162 609.596863,356.430725 597.430359,337.352417 
	C580.058350,310.111176 546.272339,295.876160 515.139587,300.767273 
	C506.166382,302.176971 506.194122,302.325470 504.066803,293.675110 
	C503.591461,291.742340 503.083649,289.817383 502.576660,287.892548 
	C501.180267,282.590820 501.687408,281.528198 506.973022,281.033997 
	C517.791077,280.022491 528.634399,279.281067 539.267639,278.444153 
	C530.425903,247.312729 495.284058,196.997726 423.360016,185.025986 
	C389.961670,179.466827 324.383606,200.041870 312.508728,221.384171 
	C319.649384,226.600891 326.646210,231.864609 333.820160,236.874680 
	C336.491913,238.740570 336.333527,240.460068 334.535126,242.607864 
	C331.973907,245.666748 329.214661,248.577789 326.862518,251.788254 
	C324.873138,254.503586 323.262238,254.530579 320.828400,252.329819 
	C309.430725,242.023529 295.524048,237.774414 280.605652,237.245728 
	C258.420837,236.459534 240.717758,246.064529 226.856842,262.898010 
	C223.113129,267.444580 220.505051,272.926270 216.953613,278.660217 
	C232.127731,280.740509 245.616333,283.069580 258.196991,289.970093 
	C255.146210,296.175659 252.255463,302.055664 249.295639,308.076202 
	C244.710846,306.260162 240.681137,304.236664 236.418030,303.055573 
	C223.672180,299.524231 210.754898,298.469208 197.609650,300.911255 
	C177.941086,304.565155 161.421387,313.635132 147.883270,329.385498 
z"/>
<path fill="#FFE17D" opacity="1.000000" stroke="none" 
	d="
M719.278564,239.748627 
	C729.565918,248.143967 736.615112,258.589111 741.797729,270.213806 
	C747.346375,282.659760 749.696655,295.828583 748.978149,309.528076 
	C747.972595,328.699677 740.463684,345.225067 728.524841,359.872955 
	C714.965942,376.508514 697.977478,387.861481 676.715637,392.215027 
	C673.482300,392.877075 670.149109,393.293304 666.861450,393.297241 
	C665.910034,393.298401 664.197876,391.513947 664.133606,390.468292 
	C663.837830,385.654755 664.094116,380.810577 663.969727,375.982117 
	C663.877319,372.395782 666.718201,372.453461 668.773804,372.297058 
	C684.788147,371.078796 697.423523,363.131561 708.296997,352.142212 
	C721.357544,338.942352 728.851013,322.626923 728.557922,304.213928 
	C728.142273,278.102936 715.380249,258.398346 692.659058,245.454254 
	C688.378540,243.015686 683.602600,241.311172 678.877808,239.836349 
	C675.764893,238.864700 674.359314,237.244156 673.532104,234.177994 
	C670.329285,222.306976 666.376099,210.737778 660.116821,200.010406 
	C651.413635,185.094482 639.895996,172.904022 625.739624,163.141190 
	C607.454895,150.531250 587.026062,143.971100 564.977783,143.508118 
	C544.786743,143.084122 525.268127,146.841049 507.669189,157.544937 
	C504.291229,159.599426 502.268738,158.978165 500.467743,155.638565 
	C498.047638,151.151047 495.411774,146.779892 492.696503,142.059769 
	C504.895905,134.864609 517.393494,129.853149 530.697388,126.519424 
	C549.264526,121.866798 567.960327,121.722740 586.556824,125.122704 
	C615.949280,130.496490 640.883484,144.566666 660.948669,166.676666 
	C673.442017,180.443115 683.411377,195.957016 688.783813,214.005615 
	C690.493774,219.750259 693.643677,223.379272 699.299561,226.167953 
	C706.350708,229.644577 712.488281,234.974152 719.278564,239.748627 
z"/>
<path fill="#163D4A" opacity="1.000000" stroke="none" 
	d="
M1257.721924,311.056366 
	C1231.437378,310.988861 1205.628662,310.988861 1179.236816,310.988861 
	C1179.236816,312.884155 1179.236694,314.476868 1179.236938,316.069580 
	C1179.238770,333.233154 1178.871582,350.408752 1179.428467,367.554291 
	C1179.643555,374.177368 1176.646729,377.481171 1171.440186,379.726288 
	C1168.493774,380.996887 1165.262207,381.606506 1161.928955,382.581116 
	C1163.053955,325.320618 1164.162109,268.925354 1165.298584,211.084167 
	C1179.424194,221.483521 1194.881836,224.126175 1211.709961,221.014160 
	C1211.709961,210.875839 1211.706543,200.744537 1211.710693,190.613235 
	C1211.716919,175.782623 1211.680542,160.951721 1211.764160,146.121536 
	C1211.792969,140.987991 1212.873657,140.056671 1217.291992,141.919479 
	C1223.978882,144.738785 1230.461670,148.042831 1238.303101,151.740707 
	C1234.963379,154.632706 1232.323486,156.712631 1229.950439,159.061874 
	C1228.785645,160.214935 1227.349609,161.861160 1227.337524,163.295166 
	C1227.177490,182.290039 1227.247192,201.286896 1227.278564,220.283218 
	C1227.279053,220.584839 1227.520630,220.886032 1227.952026,221.892380 
	C1236.252808,221.892380 1244.885498,222.208008 1253.462891,221.660080 
	C1255.489014,221.530670 1257.468262,218.626511 1259.215698,216.761276 
	C1260.888428,214.975693 1262.231567,212.881332 1264.194946,210.297073 
	C1270.926636,214.965912 1277.650391,219.629135 1284.121826,224.117493 
	C1283.870728,225.254959 1283.911865,225.720322 1283.714233,225.869537 
	C1276.005859,231.690521 1274.633301,239.572144 1274.735229,248.810791 
	C1275.128418,284.466339 1274.610962,320.132263 1275.051514,355.786682 
	C1275.185669,366.641479 1271.010742,374.043549 1261.845337,378.916840 
	C1257.679077,381.132019 1253.133423,382.633698 1248.177979,384.701904 
	C1246.723145,368.889954 1235.149536,365.073822 1223.533081,361.323334 
	C1222.268433,360.915070 1220.856079,360.863739 1219.687256,360.290100 
	C1218.672729,359.792267 1217.906372,358.788818 1217.030273,358.008789 
	C1218.212891,357.507721 1219.470581,356.450806 1220.565308,356.598907 
	C1226.163452,357.356140 1231.688232,358.849121 1237.299194,359.262268 
	C1242.721924,359.661469 1248.318848,359.647766 1253.654541,358.735657 
	C1259.171265,357.792603 1260.096680,354.324280 1259.742676,348.726562 
	C1259.061035,337.951721 1259.278442,327.121429 1259.033081,316.316162 
	C1258.993530,314.579987 1258.488037,312.854370 1257.721924,311.056366 
M1184.734619,304.773010 
	C1209.329834,304.773010 1233.924927,304.773010 1258.785034,304.773010 
	C1258.785034,292.237457 1258.785034,280.193176 1258.785034,267.989746 
	C1232.284546,267.989746 1206.073486,267.989746 1179.558228,267.989746 
	C1179.558228,280.329285 1179.558228,292.361206 1179.558228,304.773560 
	C1181.192749,304.773560 1182.492798,304.773560 1184.734619,304.773010 
M1179.243896,250.472351 
	C1179.243896,254.238098 1179.243896,258.003845 1179.243896,261.843567 
	C1206.198608,261.843567 1232.444214,261.843567 1258.817871,261.843567 
	C1258.817871,250.524445 1258.817871,239.480499 1258.817871,228.444260 
	C1257.933350,228.259171 1257.463501,228.074997 1256.993652,228.074860 
	C1235.175903,228.068192 1213.358032,228.053558 1191.540527,228.122787 
	C1189.401611,228.129562 1187.240234,228.545090 1185.131592,228.977432 
	C1181.373779,229.747910 1179.393921,232.115356 1179.352905,235.998367 
	C1179.305420,240.494080 1179.278687,244.989990 1179.243896,250.472351 
z"/>
<path fill="#183E4B" opacity="1.000000" stroke="none" 
	d="
M845.421875,336.424896 
	C841.750977,339.934509 838.332886,343.201416 833.914246,347.424683 
	C881.503662,345.778748 927.483337,344.188477 974.780945,342.552643 
	C971.188171,335.360168 968.304749,328.916779 964.845947,322.798645 
	C956.780640,308.532562 946.772095,295.691406 935.470642,283.831604 
	C934.660706,282.981628 934.621277,281.397339 934.223511,280.154510 
	C935.659302,280.198853 937.523865,279.668243 938.467651,280.372223 
	C958.385803,295.229095 977.821411,310.599396 992.057739,331.452301 
	C996.865112,338.493835 999.870911,346.022766 1000.153748,354.603546 
	C1000.422058,362.744385 995.641296,367.891113 989.695312,372.249084 
	C986.512329,374.581940 984.549133,372.152313 983.540527,369.612152 
	C981.461365,364.375519 979.382324,359.061676 978.161377,353.588196 
	C977.328796,349.855957 975.813232,349.145355 972.384705,349.536316 
	C947.737732,352.346832 923.043457,354.763641 898.427124,357.813904 
	C879.634705,360.142548 860.929504,363.182220 842.198425,365.991425 
	C838.752686,366.508209 835.177368,366.977356 832.007751,368.298370 
	C828.581482,369.726379 826.866760,368.632751 825.027222,365.929688 
	C820.666992,359.522797 816.099487,353.256927 811.290588,346.475494 
	C832.903748,341.496368 845.481201,326.506775 855.888550,309.599091 
	C867.466736,290.788971 878.005981,271.338745 888.950500,252.140350 
	C889.740112,250.755249 890.146179,249.151550 890.901917,247.208847 
	C889.510071,247.020020 888.589172,246.786285 887.668152,246.785980 
	C862.338501,246.777771 837.008606,246.748276 811.679382,246.862656 
	C808.560913,246.876724 805.418335,247.539551 802.334717,248.145050 
	C794.302490,249.722260 793.570740,249.292862 791.210999,240.565704 
	C792.198120,240.471512 793.123230,240.305145 794.048218,240.306137 
	C857.205200,240.373291 920.362244,240.424271 983.518921,240.610428 
	C987.122009,240.621048 989.297974,239.445328 991.267700,236.508011 
	C994.394836,231.844696 997.990234,227.495438 1001.570190,222.772324 
	C1009.602905,230.372665 1017.328613,237.682495 1025.054321,244.992310 
	C1024.762817,245.496689 1024.471436,246.001083 1024.180054,246.505463 
	C982.882690,246.505463 941.585327,246.505463 900.287964,246.505463 
	C900.064941,246.986252 899.841980,247.467041 899.619019,247.947830 
	C905.542175,252.015625 911.465393,256.083405 918.347168,260.809509 
	C915.359985,261.943054 913.782043,262.841095 912.099731,263.128693 
	C904.649414,264.402405 900.580444,269.822113 896.656799,275.435089 
	C881.451599,297.186829 864.369263,317.360352 845.421875,336.424896 
z"/>
<path fill="#183E4B" opacity="1.000000" stroke="none" 
	d="
M1088.811035,239.860352 
	C1076.821289,237.807587 1067.807983,240.841797 1062.004639,251.796783 
	C1060.018921,255.545303 1056.690063,258.594940 1053.890381,261.892181 
	C1053.034424,262.900330 1051.896973,263.669556 1049.965210,263.910767 
	C1050.198730,262.888672 1050.161621,261.686462 1050.704956,260.870697 
	C1066.984741,236.425491 1076.787109,209.186279 1084.988892,181.278488 
	C1088.205078,170.334900 1091.169678,159.310760 1093.941162,148.246262 
	C1095.066895,143.752258 1096.974365,142.806961 1100.947998,145.066925 
	C1105.555054,147.687119 1110.384399,149.928467 1114.891479,152.701187 
	C1115.732422,153.218582 1116.092163,156.537643 1115.687866,156.758408 
	C1109.208252,160.297470 1107.344238,166.937302 1104.611206,172.913620 
	C1102.067017,178.477249 1099.934204,184.229050 1097.118286,191.128036 
	C1103.305664,191.128036 1108.670166,191.128036 1114.034668,191.128006 
	C1114.534668,191.128006 1115.042847,191.068222 1115.533325,191.136429 
	C1126.383423,192.645493 1135.623657,190.509415 1141.249268,179.953842 
	C1141.600098,179.295380 1142.510010,178.934845 1143.557739,178.129959 
	C1149.105225,183.918839 1154.584595,189.636642 1160.063965,195.354462 
	C1159.787842,195.838333 1159.511597,196.322189 1159.235352,196.806061 
	C1157.333130,196.910004 1155.430786,197.102905 1153.528564,197.104065 
	C1135.864014,197.114700 1118.196533,197.261795 1100.536743,196.965256 
	C1095.884644,196.887131 1093.247803,198.384689 1091.173218,202.465088 
	C1086.810547,211.046066 1081.981567,219.388702 1077.441406,227.881226 
	C1075.141235,232.183624 1075.745361,233.142792 1080.482544,233.147598 
	C1091.981201,233.159241 1103.490723,232.845032 1114.973145,233.272995 
	C1119.754761,233.451187 1122.760864,231.523468 1125.469360,228.205139 
	C1127.439331,225.791489 1129.402710,223.372452 1131.585449,220.689926 
	C1137.991455,226.018982 1144.013550,230.974823 1149.941772,236.040329 
	C1150.556885,236.566010 1151.035034,238.400101 1150.862793,238.510330 
	C1149.854004,239.155502 1148.633789,239.833237 1147.482788,239.836899 
	C1135.318115,239.875641 1123.153198,239.788879 1110.988281,239.737503 
	C1110.167358,239.734039 1109.346558,239.737061 1108.113403,239.737061 
	C1108.113403,251.763748 1108.113403,263.634674 1108.113403,275.825012 
	C1114.141235,275.825012 1119.962280,276.086243 1125.734863,275.672211 
	C1127.560791,275.541199 1129.525391,273.873169 1130.955200,272.438782 
	C1133.628174,269.757446 1135.956299,266.732483 1137.397705,265.051819 
	C1143.809448,270.528809 1150.001465,275.818024 1157.306885,282.058411 
	C1139.860596,282.058411 1124.118286,282.058411 1108.021484,282.058411 
	C1108.021484,304.282867 1108.021484,326.138977 1108.021484,348.495148 
	C1122.090332,340.884247 1135.036011,332.052277 1149.055664,325.331665 
	C1149.411865,325.941772 1149.768188,326.551910 1150.124512,327.162048 
	C1131.492676,343.168457 1112.860962,359.174835 1094.489502,374.957642 
	C1090.679810,371.415771 1086.231689,367.473480 1082.098145,363.225220 
	C1081.491455,362.601807 1081.884399,359.708405 1082.651123,359.243256 
	C1092.181641,353.460449 1092.215576,344.460175 1091.983643,334.823212 
	C1091.566895,317.513397 1091.865845,300.186340 1091.865845,281.693573 
	C1082.801758,282.166412 1073.878540,282.203186 1065.068359,283.219116 
	C1057.180420,284.128693 1057.235352,284.604706 1054.132202,276.141052 
	C1066.522339,276.141052 1078.750732,276.141052 1091.838745,276.141052 
	C1091.838745,271.412994 1091.834473,267.156891 1091.839844,262.900818 
	C1091.847900,256.401642 1091.992676,249.897736 1091.757568,243.407501 
	C1091.713867,242.197342 1090.154663,241.042084 1088.811035,239.860352 
z"/>
<path fill="#19404C" opacity="1.000000" stroke="none" 
	d="
M900.000000,168.050964 
	C919.144226,168.045593 937.789185,167.953857 956.432007,168.113434 
	C959.841675,168.142593 962.020447,167.102768 963.692810,164.196640 
	C966.087219,160.035980 968.728882,156.017578 971.656006,151.309601 
	C979.678528,158.606415 988.494324,164.410080 995.611145,172.082870 
	C995.296631,172.534836 994.982117,172.986786 994.667603,173.438751 
	C992.085754,173.438751 989.503906,173.439636 986.922058,173.438614 
	C937.648499,173.419281 888.374878,173.365356 839.101562,173.462479 
	C836.026794,173.468536 832.848267,174.349487 829.903381,175.362335 
	C824.019470,177.386002 821.884277,175.963165 821.358337,168.050949 
	C847.448547,168.050949 873.474243,168.050949 900.000000,168.050964 
z"/>
<path fill="#183F4C" opacity="1.000000" stroke="none" 
	d="
M981.681519,439.086548 
	C981.677551,449.216248 981.677551,458.858459 981.677551,469.044952 
	C979.478516,469.156891 977.445251,469.260376 975.103394,469.379578 
	C975.103394,452.767181 975.103394,436.688965 975.103394,420.435547 
	C980.191040,418.689301 983.695251,419.853485 986.525879,424.834198 
	C991.853821,434.209106 997.739075,443.268036 1003.430664,452.434723 
	C1004.237366,453.733948 1005.257446,454.900696 1007.421143,455.806488 
	C1007.421143,444.015503 1007.421143,432.224518 1007.421143,420.111633 
	C1010.086609,420.111633 1011.971375,420.111633 1013.913574,420.111633 
	C1013.913574,436.475983 1013.913574,452.706207 1013.913574,468.929321 
	C1009.468872,470.219757 1006.511230,469.294861 1004.139221,465.253754 
	C998.090881,454.949402 991.671875,444.862335 985.378296,434.702484 
	C984.551208,433.367188 983.590698,432.114532 981.685425,431.071106 
	C981.685425,433.580414 981.685425,436.089752 981.681519,439.086548 
z"/>
<path fill="#1D434F" opacity="1.000000" stroke="none" 
	d="
M1160.685791,464.351624 
	C1152.481079,455.310822 1150.640747,442.444885 1154.928467,432.168091 
	C1161.912231,415.429474 1183.093750,416.562439 1191.991577,424.364197 
	C1204.664429,435.475891 1202.466797,459.270142 1187.617310,467.173950 
	C1178.373657,472.093964 1169.359619,470.527191 1160.685791,464.351624 
M1192.453979,438.255585 
	C1189.844849,428.715759 1183.948608,423.881958 1175.763184,424.572418 
	C1166.635742,425.342316 1161.099243,430.944489 1160.069092,440.770966 
	C1159.761963,443.701141 1159.773804,446.726807 1160.120850,449.651611 
	C1161.071167,457.661713 1166.482056,463.258606 1173.624756,463.979553 
	C1183.218628,464.947845 1189.510864,461.384857 1191.900635,452.544342 
	C1193.058594,448.260010 1192.544556,443.523804 1192.453979,438.255585 
z"/>
<path fill="#1A414D" opacity="1.000000" stroke="none" 
	d="
M1053.467529,437.623932 
	C1049.380981,431.790741 1045.531128,426.237122 1041.439209,420.334167 
	C1045.977051,418.958618 1049.314453,419.242554 1051.794678,423.214844 
	C1054.677490,427.831818 1057.773926,432.315369 1061.293579,437.636871 
	C1062.802246,436.146667 1064.444214,434.892517 1065.612305,433.292542 
	C1067.859985,430.213745 1069.936157,426.997437 1071.905640,423.731049 
	C1074.330444,419.709412 1077.588501,418.581543 1082.452637,420.501862 
	C1078.091553,426.719208 1074.005859,432.886536 1069.546509,438.770752 
	C1066.936890,442.214478 1066.101440,444.728760 1069.322388,448.645203 
	C1074.351562,454.760254 1078.455200,461.636414 1083.331665,468.744843 
	C1078.837402,469.874786 1075.533325,470.149719 1072.999390,466.020599 
	C1069.630859,460.531891 1065.937134,455.242859 1061.934692,449.189606 
	C1058.008545,454.866058 1053.960083,460.053436 1050.675415,465.686188 
	C1048.203369,469.925476 1045.015381,469.996002 1040.145142,469.139557 
	C1044.907227,462.266754 1048.862183,455.538910 1053.849121,449.691223 
	C1057.689575,445.187927 1057.672729,441.791504 1053.467529,437.623932 
z"/>
<path fill="#1B414E" opacity="1.000000" stroke="none" 
	d="
M1138.570068,460.507172 
	C1138.034546,456.333344 1136.207520,454.613922 1132.140503,455.067200 
	C1128.854126,455.433472 1125.466309,455.387665 1122.171021,455.054291 
	C1117.773315,454.609283 1115.318726,456.323761 1114.381104,460.588074 
	C1113.990479,462.364777 1113.249756,464.061920 1112.725586,465.812439 
	C1111.654297,469.390045 1109.471802,470.616272 1105.104248,468.820740 
	C1105.962402,466.137207 1106.711792,463.371063 1107.723022,460.704163 
	C1112.476562,448.166565 1117.204468,435.616791 1122.227905,423.187073 
	C1122.841553,421.668427 1125.052368,420.185394 1126.746826,419.863068 
	C1129.016968,419.431183 1131.213867,419.593079 1132.384155,423.032135 
	C1137.351318,437.628723 1142.835571,452.049194 1148.113647,466.540314 
	C1148.381470,467.275574 1148.488403,468.069489 1148.671875,468.843079 
	C1141.813477,470.264282 1141.705566,470.174438 1138.570068,460.507172 
M1120.229492,444.762115 
	C1119.969482,446.033325 1119.709473,447.304535 1119.468750,448.481171 
	C1124.313721,448.481171 1128.956177,448.481171 1134.015503,448.481171 
	C1131.686401,441.324310 1129.549194,434.757202 1126.956299,426.790161 
	C1124.505859,433.386536 1122.524658,438.719543 1120.229492,444.762115 
z"/>
<path fill="#173E4A" opacity="1.000000" stroke="none" 
	d="
M956.006836,458.646118 
	C956.762268,455.395569 957.802429,452.518646 957.865967,449.620361 
	C958.080139,439.837738 957.947449,430.047577 957.947449,419.998108 
	C960.315063,419.998108 962.248901,419.998108 964.383728,419.998108 
	C964.383728,430.936646 964.507935,441.684052 964.352417,452.427399 
	C964.156738,465.942017 952.589722,471.213104 941.404602,469.681732 
	C931.610107,468.340729 927.003845,464.411621 926.185242,454.772949 
	C925.220581,443.414337 925.958984,431.911072 925.958984,420.132629 
	C928.080261,420.132629 929.977173,420.132629 932.191040,420.132629 
	C932.191040,428.999237 932.153687,437.788177 932.217957,446.576385 
	C932.233582,448.719574 932.637207,450.856995 932.768005,453.002838 
	C933.078003,458.088715 935.190491,462.568298 940.170593,463.648651 
	C945.826721,464.875763 951.942200,464.965820 956.006836,458.646118 
z"/>
<path fill="#183F4C" opacity="1.000000" stroke="none" 
	d="
M1282.114502,178.047577 
	C1272.991699,184.956161 1263.998413,191.490753 1255.522339,198.638672 
	C1251.116699,202.354065 1247.699585,207.225677 1243.652344,211.396713 
	C1242.901733,212.170197 1241.274170,212.092575 1240.051514,212.407806 
	C1239.929443,211.095840 1239.225708,209.435211 1239.771973,208.523697 
	C1249.390747,192.473663 1259.162231,176.515121 1269.274780,159.922775 
	C1275.711060,163.153809 1280.469238,169.496338 1286.205322,175.648865 
	C1284.814209,176.495102 1283.636353,177.211533 1282.114502,178.047577 
z"/>
<path fill="#173E4B" opacity="1.000000" stroke="none" 
	d="
M1188.143066,208.430359 
	C1184.618042,210.075668 1183.826660,207.479950 1182.805054,205.479126 
	C1178.679932,197.399353 1174.840332,189.164032 1170.443237,181.236908 
	C1168.214722,177.219101 1164.996704,173.754669 1162.282349,169.999252 
	C1161.398438,168.776291 1160.693604,167.423920 1159.906860,166.130722 
	C1160.198608,165.768311 1160.490234,165.405899 1160.781982,165.043472 
	C1162.536743,165.638168 1164.561523,165.856232 1166.001831,166.889343 
	C1174.703125,173.130722 1183.790649,178.978592 1191.728149,186.096649 
	C1198.833374,192.468430 1197.061523,200.796982 1188.143066,208.430359 
z"/>
<path fill="#1B424E" opacity="1.000000" stroke="none" 
	d="
M910.338867,422.188171 
	C913.065186,420.846619 915.575378,419.806763 918.085571,418.766876 
	C918.395935,419.178986 918.706299,419.591064 919.016663,420.003174 
	C918.519104,421.076630 918.130615,422.218597 917.506348,423.212463 
	C913.181580,430.097809 908.991394,437.079010 904.377930,443.767303 
	C901.791992,447.516357 900.501221,451.309753 900.895813,455.832977 
	C901.140869,458.642365 900.947815,461.489197 900.969238,464.319031 
	C901.012390,470.024078 900.995117,470.041382 894.198853,468.891754 
	C894.198853,463.957062 894.446411,458.864471 894.098206,453.812897 
	C893.913818,451.137817 893.208801,448.225922 891.849121,445.953125 
	C886.740967,437.414642 881.266724,429.095184 875.665344,420.277527 
	C879.888489,419.019501 883.053955,419.021851 885.327454,423.001465 
	C889.098938,429.603333 893.025635,436.116547 897.301514,443.370300 
	C901.868103,435.933228 905.995422,429.211548 910.338867,422.188171 
z"/>
<path fill="#234854" opacity="1.000000" stroke="none" 
	d="
M1090.737793,447.999420 
	C1090.739014,438.409668 1090.739014,429.319885 1090.739014,420.057312 
	C1093.247803,420.057312 1095.302490,420.057312 1097.687378,420.057312 
	C1097.687378,435.778564 1097.756592,451.175812 1097.648438,466.571808 
	C1097.612427,471.701843 1093.880371,469.122559 1090.736572,469.499878 
	C1090.736572,462.305420 1090.736572,455.402405 1090.737793,447.999420 
z"/>
<path fill="#234854" opacity="1.000000" stroke="none" 
	d="
M1234.005127,441.295227 
	C1241.145996,441.290466 1247.794556,441.134827 1254.424316,441.419464 
	C1255.602661,441.470062 1256.702515,443.350464 1257.838623,444.385925 
	C1256.877930,445.420776 1255.932251,447.339508 1254.954346,447.356140 
	C1242.854858,447.561951 1230.750610,447.490509 1218.772705,447.490509 
	C1217.089233,441.772827 1217.363647,441.366791 1222.546997,441.340088 
	C1226.200073,441.321289 1229.853271,441.309479 1234.005127,441.295227 
z"/>
<path fill="#234854" opacity="1.000000" stroke="none" 
	d="
M851.743469,441.245331 
	C853.998413,441.244202 855.790222,441.244202 857.879211,441.244202 
	C857.998169,443.403809 858.086304,445.005066 858.197388,447.022095 
	C845.025024,447.022095 832.144897,447.022095 819.262939,447.019653 
	C817.648682,441.564178 817.776489,441.365387 823.293152,441.338989 
	C832.622192,441.294281 841.951294,441.275909 851.743469,441.245331 
z"/>
<path fill="#FFFFFF" opacity="1.000000" stroke="none" 
	d="
M148.112915,329.114532 
	C161.421387,313.635132 177.941086,304.565155 197.609650,300.911255 
	C210.754898,298.469208 223.672180,299.524231 236.418030,303.055573 
	C240.681137,304.236664 244.710846,306.260162 249.295639,308.076202 
	C252.255463,302.055664 255.146210,296.175659 258.196991,289.970093 
	C245.616333,283.069580 232.127731,280.740509 216.953613,278.660217 
	C220.505051,272.926270 223.113129,267.444580 226.856842,262.898010 
	C240.717758,246.064529 258.420837,236.459534 280.605652,237.245728 
	C295.524048,237.774414 309.430725,242.023529 320.828400,252.329819 
	C323.262238,254.530579 324.873138,254.503586 326.862518,251.788254 
	C329.214661,248.577789 331.973907,245.666748 334.535126,242.607864 
	C336.333527,240.460068 336.491913,238.740570 333.820160,236.874680 
	C326.646210,231.864609 319.649384,226.600891 312.508728,221.384171 
	C324.383606,200.041870 389.961670,179.466827 423.360016,185.025986 
	C495.284058,196.997726 530.425903,247.312729 539.267639,278.444153 
	C528.634399,279.281067 517.791077,280.022491 506.973022,281.033997 
	C501.687408,281.528198 501.180267,282.590820 502.576660,287.892548 
	C503.083649,289.817383 503.591461,291.742340 504.066803,293.675110 
	C506.194122,302.325470 506.166382,302.176971 515.139587,300.767273 
	C546.272339,295.876160 580.058350,310.111176 597.430359,337.352417 
	C609.596863,356.430725 613.900940,377.135162 609.605530,398.896271 
	C604.750549,423.491852 591.155884,442.716370 569.100586,455.563568 
	C555.194458,463.663910 540.167236,466.955719 524.284668,466.959778 
	C420.629181,466.986176 316.972473,467.258331 213.318848,466.821533 
	C178.612778,466.675293 152.449951,450.525360 136.698074,419.343201 
	C121.825371,389.901428 126.167198,354.890778 148.112915,329.114532 
z"/>
<path fill="#FCFCFC" opacity="1.000000" stroke="none" 
	d="
M1184.263672,304.773285 
	C1182.492798,304.773560 1181.192749,304.773560 1179.558228,304.773560 
	C1179.558228,292.361206 1179.558228,280.329285 1179.558228,267.989746 
	C1206.073486,267.989746 1232.284546,267.989746 1258.785034,267.989746 
	C1258.785034,280.193176 1258.785034,292.237457 1258.785034,304.773010 
	C1233.924927,304.773010 1209.329834,304.773010 1184.263672,304.773285 
z"/>
<path fill="#FDFDFD" opacity="1.000000" stroke="none" 
	d="
M1179.243408,249.979095 
	C1179.278687,244.989990 1179.305420,240.494080 1179.352905,235.998367 
	C1179.393921,232.115356 1181.373779,229.747910 1185.131592,228.977432 
	C1187.240234,228.545090 1189.401611,228.129562 1191.540527,228.122787 
	C1213.358032,228.053558 1235.175903,228.068192 1256.993652,228.074860 
	C1257.463501,228.074997 1257.933350,228.259171 1258.817871,228.444260 
	C1258.817871,239.480499 1258.817871,250.524445 1258.817871,261.843567 
	C1232.444214,261.843567 1206.198608,261.843567 1179.243896,261.843567 
	C1179.243896,258.003845 1179.243896,254.238098 1179.243408,249.979095 
z"/>
<path fill="#FBFCFC" opacity="1.000000" stroke="none" 
	d="
M1192.620728,438.623871 
	C1192.544556,443.523804 1193.058594,448.260010 1191.900635,452.544342 
	C1189.510864,461.384857 1183.218628,464.947845 1173.624756,463.979553 
	C1166.482056,463.258606 1161.071167,457.661713 1160.120850,449.651611 
	C1159.773804,446.726807 1159.761963,443.701141 1160.069092,440.770966 
	C1161.099243,430.944489 1166.635742,425.342316 1175.763184,424.572418 
	C1183.948608,423.881958 1189.844849,428.715759 1192.620728,438.623871 
z"/>
<path fill="#EEF0F1" opacity="1.000000" stroke="none" 
	d="
M1120.386475,444.407349 
	C1122.524658,438.719543 1124.505859,433.386536 1126.956299,426.790161 
	C1129.549194,434.757202 1131.686401,441.324310 1134.015503,448.481171 
	C1128.956177,448.481171 1124.313721,448.481171 1119.468750,448.481171 
	C1119.709473,447.304535 1119.969482,446.033325 1120.386475,444.407349 
z"/>
</svg>