<svg version="1.1" id="Layer_1" xmlns="http://www.w3.org/2000/svg" xmlns:xlink="http://www.w3.org/1999/xlink" x="0px" y="0px"
	 width="100%" viewBox="0 0 1496 612" enable-background="new 0 0 1496 612" xml:space="preserve">
<path fill="#DEC673" opacity="1.000000" stroke="none" 
	d="
M921.000000,613.000000 
	C614.036255,613.000000 307.572571,613.000000 1.054423,613.000000 
	C1.054423,409.060455 1.054423,205.120865 1.054423,1.090646 
	C499.547180,1.090646 998.094421,1.090646 1496.820801,1.090646 
	C1496.820801,204.999878 1496.820801,408.999908 1496.820801,613.000000 
	C1305.120605,613.000000 1113.310303,613.000000 921.000000,613.000000 
M571.750122,288.795685 
	C566.491455,286.962372 563.624023,283.433838 561.883057,277.939789 
	C548.039246,234.253616 520.046631,202.435272 479.599152,181.391571 
	C446.738708,164.295197 411.857086,159.817596 375.717529,166.629440 
	C343.839294,172.638062 316.198822,187.501343 292.780701,209.965637 
	C289.104950,213.491638 285.609436,215.568359 280.211761,215.484406 
	C274.464966,215.395050 268.602631,216.501450 262.947601,217.779739 
	C231.057327,224.988373 208.704529,243.642426 196.794510,274.211456 
	C194.889145,279.101868 191.909088,281.088593 187.162277,282.134430 
	C169.358017,286.057098 153.895157,294.507202 140.565308,306.918518 
	C121.087448,325.054169 110.134499,347.237030 107.738907,373.867920 
	C106.088280,392.217224 108.114639,409.952271 116.431229,426.318146 
	C136.602005,466.011414 168.629883,487.525757 213.877808,487.545929 
	C317.195740,487.591980 420.513672,487.589386 523.831543,487.521973 
	C530.812317,487.517426 537.868958,487.331696 544.758423,486.326294 
	C564.594727,483.431732 581.816711,474.754700 596.733765,461.450226 
	C628.762817,432.883759 640.174316,390.324951 626.772949,349.957581 
	C617.517822,322.079407 598.958252,301.868744 571.750122,288.795685 
M651.665527,187.879333 
	C662.622803,201.528503 668.870056,217.373306 673.483765,234.042282 
	C674.052246,236.096146 675.874512,238.888992 677.645386,239.363754 
	C713.215454,248.899582 740.683533,289.079895 722.591125,330.046661 
	C712.158813,353.668518 694.208008,368.742462 667.796143,372.012451 
	C664.714966,372.393921 663.803162,373.559326 663.891357,376.389252 
	C664.010803,380.218170 663.900879,384.053986 663.909546,387.886780 
	C663.923889,394.225800 664.096741,394.379852 670.405457,393.625946 
	C687.469116,391.586853 702.437500,384.654755 715.376892,373.560120 
	C739.546326,352.836609 752.612976,326.904877 748.588074,294.642548 
	C744.577942,262.498291 726.751709,239.442017 697.884338,225.080261 
	C693.409241,222.853882 690.763306,219.990097 689.436951,215.425507 
	C685.003418,200.168411 677.288330,186.608749 667.498230,174.238205 
	C649.395325,151.363739 626.431152,135.749237 598.273926,127.549904 
	C582.614197,122.989830 566.737122,122.381180 550.741455,123.198738 
	C530.945374,124.210541 512.612793,130.498322 495.348145,140.094437 
	C492.837524,141.489914 492.599823,143.057144 494.055450,145.357468 
	C496.459747,149.156937 498.801025,152.999832 501.046906,156.894760 
	C502.458374,159.342743 503.651245,159.642578 506.562531,158.404282 
	C516.776428,154.059921 526.953369,148.853119 537.693115,146.655045 
	C583.502625,137.279343 621.267273,151.743225 651.665527,187.879333 
M1161.995483,370.389160 
	C1161.995483,374.140808 1161.995483,377.892487 1161.995483,381.629028 
	C1173.041748,382.170502 1179.470947,376.240417 1179.466553,365.739410 
	C1179.459717,349.245728 1179.584351,332.750732 1179.393311,316.259277 
	C1179.345581,312.129272 1180.614624,310.820496 1184.786255,310.853729 
	C1207.776123,311.036743 1230.768677,311.039490 1253.758789,310.882629 
	C1257.795532,310.855103 1259.207520,311.868408 1259.203003,316.145691 
	C1259.190674,327.773987 1259.973389,339.406067 1259.824219,351.028778 
	C1259.793945,353.395355 1257.582642,356.651215 1255.451538,357.843872 
	C1252.724609,359.369934 1249.039429,359.794220 1245.803711,359.677673 
	C1238.330688,359.408600 1230.877563,358.551422 1223.421265,357.878174 
	C1221.412109,357.696777 1219.420654,357.319794 1217.421021,357.032562 
	C1217.191162,357.654816 1216.961304,358.277100 1216.731445,358.899353 
	C1229.630005,364.413391 1246.315552,365.246704 1248.288574,384.644775 
	C1253.181152,382.642090 1257.453857,381.279053 1261.358032,379.217987 
	C1270.652710,374.311127 1275.239868,367.018829 1275.094482,355.856812 
	C1274.621460,319.543457 1275.056396,283.219116 1274.786865,246.901642 
	C1274.728882,239.107025 1275.885132,232.416534 1282.307861,227.296432 
	C1283.038330,226.714066 1283.183350,223.838226 1282.576172,223.378769 
	C1276.656982,218.900055 1270.519775,214.709457 1264.375732,210.388443 
	C1261.642456,213.780289 1259.636230,216.651382 1257.216797,219.116867 
	C1255.941406,220.416550 1253.973633,221.726425 1252.268799,221.794724 
	C1245.116821,222.081131 1237.946045,221.869461 1230.782471,221.907532 
	C1228.356689,221.920425 1227.266968,221.203979 1227.275635,218.434540 
	C1227.329346,201.285706 1227.321777,184.133896 1227.016724,166.988724 
	C1226.940552,162.706818 1228.197388,160.012039 1231.737183,157.481308 
	C1238.709229,152.496765 1238.539062,151.855255 1230.707153,148.062439 
	C1224.825928,145.214218 1218.816040,142.631805 1211.985107,139.532608 
	C1211.775146,143.628494 1211.509888,146.408432 1211.509521,149.188385 
	C1211.506592,172.012573 1211.584961,194.836884 1211.500732,217.660629 
	C1211.495972,218.958694 1210.304688,221.366470 1209.628052,221.380035 
	C1200.245605,221.567993 1190.666504,223.875473 1181.582153,219.774689 
	C1176.207275,217.348419 1171.000610,214.549973 1165.325928,211.723450 
	C1164.217407,264.894714 1163.127808,317.156067 1161.995483,370.389160 
M969.636963,349.830231 
	C974.976440,348.670990 977.849121,350.400513 978.885559,356.187286 
	C979.724365,360.871124 981.760376,365.388916 983.637268,369.822937 
	C985.097107,373.271515 987.641541,374.003540 990.833618,371.544037 
	C998.574341,365.579681 1001.580750,358.091370 999.545105,348.280518 
	C997.162964,336.799500 990.070801,328.193024 982.944763,319.645111 
	C970.480713,304.693970 955.282166,292.726929 939.630310,281.340118 
	C938.296814,280.369934 936.243835,280.388672 934.525085,279.947998 
	C935.139648,281.560150 935.345886,283.547577 936.430481,284.727692 
	C950.610596,300.156433 962.875427,316.868561 971.614258,336.024292 
	C974.324219,341.964752 973.831543,342.822296 967.242493,343.041718 
	C924.948120,344.450287 882.654114,345.866730 840.359253,347.258667 
	C838.857666,347.308105 837.348511,347.128326 835.641907,347.045624 
	C841.288879,341.153351 846.789795,336.049927 851.549622,330.329712 
	C866.982971,311.782410 882.186157,293.042664 897.383484,274.300354 
	C901.508606,269.213074 905.463928,264.124023 912.532043,262.991241 
	C914.039612,262.749603 915.445496,261.873383 918.360352,260.701874 
	C911.281799,255.922470 905.339111,251.909958 899.396362,247.897430 
	C899.558655,247.440109 899.721008,246.982803 899.883362,246.525482 
	C941.198364,246.525482 982.513428,246.525482 1023.828430,246.525482 
	C1024.142456,245.955444 1024.456543,245.385406 1024.770630,244.815369 
	C1017.213013,237.613693 1009.655396,230.412018 1001.665161,222.798111 
	C998.257385,227.210098 994.809204,231.050827 992.106506,235.359253 
	C989.689636,239.212021 986.803162,240.491013 982.295776,240.478241 
	C919.470032,240.300232 856.643860,240.302338 793.817749,240.280991 
	C792.764648,240.280624 791.711487,240.534256 790.320312,240.712708 
	C791.022339,242.208847 791.523743,243.234070 791.988647,244.275620 
	C794.064514,248.926331 796.921509,250.752914 802.183594,248.393768 
	C805.091309,247.090118 808.677368,246.910324 811.960693,246.895630 
	C836.290771,246.786682 860.621643,246.836197 884.952209,246.875671 
	C886.657471,246.878433 888.362122,247.199570 890.781433,247.445190 
	C889.788208,249.731400 889.274719,251.286270 888.481873,252.682526 
	C876.977539,272.943054 865.953247,293.502502 853.702576,313.302673 
	C846.710266,324.603943 837.574890,334.594788 825.598450,341.170593 
	C821.440125,343.453796 816.759521,344.785797 811.494690,346.879395 
	C816.696655,354.115601 821.634644,361.147583 826.826721,367.986694 
	C827.429382,368.780579 829.509583,368.893219 830.788513,368.666351 
	C846.504028,365.878601 862.108887,362.280273 877.916260,360.237732 
	C908.126343,356.334167 938.448608,353.298492 969.636963,349.830231 
M1149.879272,184.620071 
	C1147.957275,182.187302 1146.035278,179.754547 1144.051514,177.243637 
	C1142.020386,179.122513 1141.090942,179.660751 1140.620361,180.466858 
	C1135.362549,189.474792 1127.471191,192.527863 1117.440063,190.925461 
	C1116.627441,190.795670 1115.776489,190.904251 1114.943359,190.904205 
	C1109.383789,190.903809 1103.824219,190.903992 1097.056396,190.903992 
	C1103.686890,177.623001 1105.209106,163.115845 1119.248047,154.356277 
	C1110.727661,149.942947 1103.324585,146.108307 1095.115601,141.856247 
	C1085.152466,184.826019 1073.395386,226.400681 1050.175781,263.892212 
	C1051.889648,263.657349 1052.927490,263.038055 1053.668823,262.166504 
	C1056.904419,258.362457 1060.822021,254.885437 1063.080200,250.553696 
	C1068.276245,240.586563 1076.374878,238.217926 1086.565674,239.799301 
	C1086.891235,239.849823 1087.235474,239.842072 1087.563843,239.802429 
	C1090.721313,239.421204 1092.026733,240.601028 1091.954834,243.976959 
	C1091.760132,253.137451 1091.753906,262.306488 1091.917603,271.467773 
	C1091.981812,275.061676 1090.490112,276.028503 1087.149658,275.971802 
	C1077.987793,275.816193 1068.821777,275.896301 1059.657349,275.927155 
	C1057.933838,275.932953 1056.210938,276.142303 1054.328369,276.268433 
	C1057.102905,284.468231 1057.216553,284.249847 1064.586304,283.385193 
	C1071.677002,282.553223 1078.866333,282.600647 1085.990356,281.999481 
	C1090.430420,281.624817 1092.088623,282.955933 1091.999634,287.742798 
	C1091.702637,303.733368 1091.540527,319.743042 1092.014404,335.725006 
	C1092.288452,344.963165 1091.782959,353.277313 1083.073120,358.926758 
	C1082.191772,359.498444 1081.866333,362.900482 1082.632446,363.706573 
	C1086.503784,367.780396 1090.821899,371.429657 1094.654541,374.927704 
	C1112.793579,359.312897 1131.390259,343.304138 1149.986938,327.295380 
	C1149.703125,326.826660 1149.419434,326.357941 1149.135620,325.889221 
	C1141.694824,327.781281 1135.672729,332.776581 1129.037598,336.382874 
	C1122.119995,340.142639 1115.375244,344.220551 1108.454956,348.217163 
	C1108.082275,347.168945 1107.874756,346.857208 1107.874146,346.545044 
	C1107.835449,326.218231 1107.864258,305.891113 1107.742432,285.564850 
	C1107.721191,282.025635 1109.759521,282.020264 1112.275635,282.031067 
	C1124.938843,282.085480 1137.602417,282.095001 1150.265869,282.084656 
	C1151.959961,282.083252 1153.653809,281.879517 1156.601685,281.688049 
	C1149.778198,275.452026 1143.976685,270.150085 1138.006714,264.694092 
	C1137.965698,264.729187 1137.134155,265.139557 1136.759277,265.806549 
	C1131.548828,275.076782 1123.358643,277.383331 1113.499390,275.900208 
	C1113.010620,275.826691 1112.494629,275.838959 1112.002319,275.899841 
	C1108.661865,276.312836 1107.640991,274.715027 1107.726929,271.545807 
	C1107.884888,265.718445 1107.637451,259.880280 1107.786255,254.052429 
	C1107.903320,249.464081 1106.739014,243.407104 1109.159790,240.747925 
	C1111.262695,238.437836 1117.591919,239.871918 1122.054932,239.835739 
	C1130.552246,239.766830 1139.050903,239.868332 1147.547974,239.787354 
	C1148.585693,239.777466 1149.812988,239.293182 1150.558105,238.603195 
	C1150.872070,238.312424 1150.455811,236.575653 1149.873901,236.076172 
	C1143.968140,231.007721 1137.959595,226.059235 1131.614502,220.772720 
	C1129.377930,223.460510 1127.398682,225.678528 1125.601685,228.035507 
	C1122.804810,231.704163 1119.519043,233.434052 1114.584839,233.268097 
	C1102.768433,232.870682 1090.928833,233.177475 1079.098511,233.158691 
	C1077.886475,233.156769 1076.674805,232.875275 1074.809204,232.641647 
	C1080.642700,221.992447 1086.256348,212.002747 1091.591064,201.866302 
	C1093.465942,198.303864 1095.905518,196.968170 1099.921265,197.008560 
	C1117.581909,197.186310 1135.245117,197.112030 1152.907349,197.068069 
	C1154.940552,197.063004 1156.972656,196.676849 1160.751953,196.287384 
	C1156.571045,191.787933 1153.474609,188.455505 1149.879272,184.620071 
M821.686646,168.209854 
	C822.346802,171.003296 822.751038,173.910721 823.898499,176.487137 
	C824.109863,176.961761 827.348206,176.181946 829.160095,175.830200 
	C832.720947,175.138901 836.259705,173.693268 839.810059,173.685608 
	C890.241760,173.576965 940.673828,173.660461 991.105835,173.672195 
	C992.317139,173.672470 993.528503,173.380981 994.739868,173.225586 
	C995.012939,172.698029 995.285950,172.170471 995.559021,171.642914 
	C987.763306,165.000183 979.967590,158.357468 971.729431,151.337738 
	C969.162109,155.374649 966.744202,158.573944 964.980164,162.100311 
	C962.688721,166.681000 959.503113,168.215698 954.293396,168.191086 
	C910.353394,167.983444 866.411865,168.090637 821.686646,168.209854 
M1270.036987,82.868904 
	C1268.661743,105.694725 1285.007568,117.924805 1302.127686,118.752121 
	C1326.501343,119.929970 1341.406006,96.665573 1335.535156,76.699615 
	C1329.704468,56.870461 1305.984619,47.951992 1289.895630,55.518387 
	C1278.524658,60.866062 1272.523560,70.043335 1270.036987,82.868904 
M1014.465454,433.516724 
	C1014.465454,429.071899 1014.465454,424.627075 1014.465454,420.336761 
	C1009.592712,418.702179 1007.694458,419.839569 1007.769470,424.616394 
	C1007.913147,433.767212 1007.663696,442.924835 1007.526794,452.078827 
	C1007.504761,453.549591 1007.220154,455.016357 1007.057007,456.484955 
	C1003.376038,452.322449 1000.786377,448.097626 998.176453,443.885284 
	C993.795105,436.813904 989.340820,429.786804 985.039734,422.667053 
	C983.145996,419.532318 980.182251,418.719421 977.364807,419.982574 
	C975.989075,420.599365 974.993408,423.541687 974.965210,425.448364 
	C974.767944,438.760254 974.889221,452.076569 974.855652,465.391327 
	C974.849548,467.816620 975.148743,469.656006 978.271057,469.620300 
	C981.243652,469.586334 981.851074,467.974884 981.825562,465.439606 
	C981.755371,458.447998 981.800720,451.455231 981.800476,444.462921 
	C981.800354,440.256104 981.800476,436.049286 981.800476,431.842468 
	C982.259949,431.731079 982.719482,431.619690 983.178955,431.508301 
	C985.581055,435.384033 987.965454,439.270905 990.388916,443.133240 
	C995.341797,451.026764 1000.104309,459.055267 1005.445190,466.677826 
	C1006.626099,468.363312 1009.883850,468.593658 1012.185242,469.494019 
	C1012.839600,467.818817 1014.015198,466.158264 1014.062683,464.466064 
	C1014.342529,454.485077 1014.359924,444.496735 1014.465454,433.516724 
M1195.672241,460.113678 
	C1200.201538,452.847412 1201.279663,445.049255 1199.430420,436.735107 
	C1197.406616,427.636749 1189.598022,420.521912 1179.955688,419.146790 
	C1169.232056,417.617401 1160.623413,421.592560 1155.967163,430.321655 
	C1152.466309,436.884857 1151.887451,443.602325 1153.559448,451.004303 
	C1155.633301,460.185028 1160.407959,466.375671 1169.470947,468.830139 
	C1179.698608,471.600037 1188.519409,469.286713 1195.672241,460.113678 
M1043.981812,419.441437 
	C1040.559814,420.434723 1042.679810,422.211792 1043.554932,423.505951 
	C1046.906982,428.463470 1050.087524,433.589081 1053.931274,438.146606 
	C1057.321899,442.166962 1057.466431,445.105804 1054.021362,449.321533 
	C1049.051025,455.403809 1044.929688,462.179901 1040.191162,469.028290 
	C1045.120239,470.269196 1048.262085,469.796753 1050.720703,465.696442 
	C1054.001465,460.225281 1057.903076,455.126343 1061.892212,449.355011 
	C1065.841064,455.283813 1069.463501,460.404572 1072.735718,465.740143 
	C1075.181152,469.727570 1078.360352,470.235931 1082.838501,468.901154 
	C1082.094360,467.429749 1081.636108,466.219360 1080.929688,465.177368 
	C1077.011841,459.397858 1073.315186,453.434143 1068.968262,447.992554 
	C1066.428467,444.813263 1066.804321,442.592041 1068.980957,439.688995 
	C1072.968506,434.370697 1076.755127,428.900757 1080.567139,423.453064 
	C1081.242554,422.487823 1081.634033,421.324005 1082.113403,420.340607 
	C1075.898071,417.434174 1073.414185,421.495270 1070.831421,425.278412 
	C1068.014404,429.404449 1065.249634,433.566101 1062.026367,438.360443 
	C1058.266479,432.783264 1055.195557,428.451874 1052.374390,423.963501 
	C1050.541626,421.047729 1048.296753,419.192047 1043.981812,419.441437 
M1147.604858,469.465424 
	C1147.756958,468.442657 1148.307861,467.277832 1148.001709,466.418335 
	C1142.821167,451.873718 1137.644775,437.324615 1132.111572,422.913177 
	C1131.514526,421.358276 1128.733032,419.846771 1126.922852,419.795471 
	C1125.373169,419.751495 1122.929443,421.494141 1122.310791,423.024536 
	C1116.902100,436.406189 1111.791016,449.908783 1106.660767,463.401764 
	C1105.993164,465.157501 1105.718506,467.062592 1105.255981,468.922028 
	C1111.074341,470.054901 1111.304565,469.897614 1113.357056,463.957214 
	C1116.464111,454.964539 1116.464111,454.965240 1125.967285,455.108398 
	C1128.455566,455.145874 1131.027344,454.805878 1133.403320,455.339813 
	C1135.028564,455.705017 1136.827026,456.993042 1137.742554,458.394623 
	C1138.882202,460.139679 1139.411499,462.384521 1139.814087,464.488190 
	C1140.589355,468.540588 1142.954712,470.087921 1147.604858,469.465424 
M950.509338,469.214722 
	C958.804321,467.177307 963.534119,462.636963 964.117737,454.193756 
	C964.839783,443.748566 964.652893,433.232788 964.551575,422.750458 
	C964.541504,421.709839 962.416199,419.916901 961.239014,419.888916 
	C960.171021,419.863464 958.167419,421.725342 958.110901,422.833313 
	C957.797791,428.981842 957.983398,435.154480 957.937195,441.318390 
	C957.906006,445.479584 958.153381,449.690948 957.603210,453.789520 
	C956.649597,460.893463 951.715454,464.295288 943.523071,464.107788 
	C937.592407,463.972046 933.783813,460.342529 932.990051,453.680420 
	C932.499023,449.559174 932.257141,445.392517 932.180542,441.241150 
	C932.052307,434.288818 932.145569,427.332458 932.145569,420.157196 
	C928.530396,419.709808 925.360291,419.077423 925.387085,424.130646 
	C925.435669,433.293243 925.062622,442.472168 925.489990,451.615082 
	C926.038208,463.343811 933.101990,469.992828 944.225403,469.952881 
	C946.043457,469.946350 947.860229,469.557404 950.509338,469.214722 
M1278.416626,179.807648 
	C1280.889771,178.559692 1283.362915,177.311737 1286.840332,175.557022 
	C1280.543335,169.642105 1274.897339,164.338699 1268.823364,158.633362 
	C1267.661621,160.855240 1267.240479,161.739151 1266.751587,162.583862 
	C1258.174805,177.404999 1249.549561,192.198425 1241.071289,207.075607 
	C1240.254517,208.508774 1240.339966,210.456024 1240.006470,212.164612 
	C1241.699951,211.449921 1243.900879,211.188431 1245.007568,209.949570 
	C1254.903198,198.872971 1265.014771,188.071091 1278.416626,179.807648 
M1191.303589,185.265106 
	C1182.557861,176.135056 1172.200317,169.428650 1160.243896,164.674240 
	C1160.673462,167.096863 1161.730225,168.967148 1162.861694,170.791046 
	C1168.268799,179.507141 1173.797974,188.149689 1179.059326,196.952606 
	C1180.830444,199.915985 1181.903198,203.291840 1183.360718,206.448929 
	C1184.801514,209.569946 1186.822754,209.426498 1189.333252,207.569260 
	C1196.780884,202.059769 1197.720459,194.059174 1191.303589,185.265106 
M876.450623,421.221649 
	C879.247681,425.749359 881.741028,430.502869 884.904846,434.757843 
	C891.563110,443.712372 896.114563,453.139099 894.170166,464.724548 
	C893.723938,467.383057 894.176392,469.765076 897.909302,469.647156 
	C901.687866,469.527802 901.200195,466.770172 900.912842,464.633423 
	C899.477173,453.959564 902.442200,444.730469 909.118591,436.371490 
	C912.011230,432.749817 914.199585,428.562500 916.670715,424.608948 
	C917.509766,423.266510 918.235046,421.852844 919.079224,420.352753 
	C912.981934,418.773193 912.424988,418.929260 909.648010,423.342773 
	C905.696777,429.622437 901.811890,435.943848 897.441467,442.983826 
	C896.030762,440.854523 895.086487,439.551025 894.268311,438.172699 
	C891.208435,433.018036 888.301575,427.768707 885.115967,422.693848 
	C883.015137,419.347046 880.091492,418.052643 876.450623,421.221649 
M1090.679565,467.611969 
	C1092.484985,468.264343 1094.268188,469.214874 1096.112183,469.353088 
	C1096.556152,469.386322 1097.669434,466.731537 1097.682373,465.305664 
	C1097.808716,451.531342 1097.740234,437.755341 1097.793457,423.980072 
	C1097.803589,421.376129 1097.544678,419.473022 1094.144897,419.473755 
	C1090.783447,419.474457 1090.423462,421.350037 1090.436035,423.954590 
	C1090.504395,438.226959 1090.522705,452.499573 1090.679565,467.611969 
M1255.771484,441.334259 
	C1244.479004,441.304901 1233.186401,441.295685 1221.894165,441.229858 
	C1219.514038,441.215973 1217.543579,441.415039 1217.607056,444.563538 
	C1217.674316,447.902435 1220.036011,447.572510 1222.182861,447.575653 
	C1232.646484,447.591034 1243.110107,447.612274 1253.573486,447.560242 
	C1257.982910,447.538300 1258.599731,446.222321 1255.771484,441.334259 
M853.122803,441.189514 
	C843.141296,441.206085 833.159790,441.214874 823.178284,441.244904 
	C820.858521,441.251892 818.213684,440.863129 818.331543,444.506866 
	C818.447876,448.105713 821.125732,447.578125 823.402283,447.580048 
	C833.550110,447.588593 843.700256,447.666840 853.843262,447.440277 
	C855.350159,447.406616 857.796814,446.154266 858.123962,444.991577 
	C858.987671,441.922607 856.780762,440.986511 853.122803,441.189514 
z"/>
<path fill="#FEFDFD" opacity="1.000000" stroke="none" 
	d="
M572.098022,288.932556 
	C598.958252,301.868744 617.517822,322.079407 626.772949,349.957581 
	C640.174316,390.324951 628.762817,432.883759 596.733765,461.450226 
	C581.816711,474.754700 564.594727,483.431732 544.758423,486.326294 
	C537.868958,487.331696 530.812317,487.517426 523.831543,487.521973 
	C420.513672,487.589386 317.195740,487.591980 213.877808,487.545929 
	C168.629883,487.525757 136.602005,466.011414 116.431229,426.318146 
	C108.114639,409.952271 106.088280,392.217224 107.738907,373.867920 
	C110.134499,347.237030 121.087448,325.054169 140.565308,306.918518 
	C153.895157,294.507202 169.358017,286.057098 187.162277,282.134430 
	C191.909088,281.088593 194.889145,279.101868 196.794510,274.211456 
	C208.704529,243.642426 231.057327,224.988373 262.947601,217.779739 
	C268.602631,216.501450 274.464966,215.395050 280.211761,215.484406 
	C285.609436,215.568359 289.104950,213.491638 292.780701,209.965637 
	C316.198822,187.501343 343.839294,172.638062 375.717529,166.629440 
	C411.857086,159.817596 446.738708,164.295197 479.599152,181.391571 
	C520.046631,202.435272 548.039246,234.253616 561.883057,277.939789 
	C563.624023,283.433838 566.491455,286.962372 572.098022,288.932556 
M128.963684,373.565277 
	C127.121391,388.070648 128.834824,402.365784 134.964081,415.422699 
	C150.862534,449.290588 178.118317,466.649170 215.513565,466.739044 
	C318.502380,466.986572 421.492249,466.873474 524.481567,466.788757 
	C538.451538,466.777283 552.011353,464.175659 564.551270,457.694641 
	C585.334778,446.953156 599.541626,430.653137 606.674377,408.149902 
	C611.320679,393.491028 612.529907,378.763062 608.543274,363.926422 
	C598.851379,327.857147 575.274414,306.690735 538.464417,301.081604 
	C529.620117,299.733887 520.323364,301.447449 511.232422,301.551208 
	C509.326721,301.572937 506.047241,301.154999 505.724091,300.174225 
	C503.827271,294.417084 502.619507,288.432922 501.127869,282.313934 
	C514.133118,278.507812 526.810181,278.455872 540.319458,279.426666 
	C520.668945,229.646896 485.505402,198.345917 433.897491,187.695496 
	C388.158386,178.256195 347.381134,190.794830 311.335846,221.355591 
	C313.068756,222.355011 314.087006,222.847031 315.002930,223.485764 
	C321.542297,228.045990 328.123291,232.552048 334.517365,237.308838 
	C335.459595,238.009796 336.295776,240.576111 335.804291,241.207123 
	C332.078217,245.991058 328.008942,250.507645 324.058014,255.094391 
	C280.749664,218.040924 228.570068,246.202789 218.498550,278.755585 
	C219.497559,278.879272 220.457260,279.017578 221.421143,279.114471 
	C233.099548,280.289062 244.325928,283.092102 255.039307,287.998566 
	C257.898865,289.308167 258.350525,290.716827 256.898346,293.355103 
	C254.811127,297.147095 252.802032,300.996796 251.034088,304.944763 
	C249.829803,307.634094 248.403687,308.362366 245.628967,307.083344 
	C225.023178,297.585052 203.895508,297.234680 182.978165,305.241547 
	C152.030945,317.087738 134.187683,339.936951 128.963684,373.565277 
z"/>
<path fill="#FEFDFC" opacity="1.000000" stroke="none" 
	d="
M651.448486,187.596039 
	C621.267273,151.743225 583.502625,137.279343 537.693115,146.655045 
	C526.953369,148.853119 516.776428,154.059921 506.562531,158.404282 
	C503.651245,159.642578 502.458374,159.342743 501.046906,156.894760 
	C498.801025,152.999832 496.459747,149.156937 494.055450,145.357468 
	C492.599823,143.057144 492.837524,141.489914 495.348145,140.094437 
	C512.612793,130.498322 530.945374,124.210541 550.741455,123.198738 
	C566.737122,122.381180 582.614197,122.989830 598.273926,127.549904 
	C626.431152,135.749237 649.395325,151.363739 667.498230,174.238205 
	C677.288330,186.608749 685.003418,200.168411 689.436951,215.425507 
	C690.763306,219.990097 693.409241,222.853882 697.884338,225.080261 
	C726.751709,239.442017 744.577942,262.498291 748.588074,294.642548 
	C752.612976,326.904877 739.546326,352.836609 715.376892,373.560120 
	C702.437500,384.654755 687.469116,391.586853 670.405457,393.625946 
	C664.096741,394.379852 663.923889,394.225800 663.909546,387.886780 
	C663.900879,384.053986 664.010803,380.218170 663.891357,376.389252 
	C663.803162,373.559326 664.714966,372.393921 667.796143,372.012451 
	C694.208008,368.742462 712.158813,353.668518 722.591125,330.046661 
	C740.683533,289.079895 713.215454,248.899582 677.645386,239.363754 
	C675.874512,238.888992 674.052246,236.096146 673.483765,234.042282 
	C668.870056,217.373306 662.622803,201.528503 651.448486,187.596039 
z"/>
<path fill="#FEFDFB" opacity="1.000000" stroke="none" 
	d="
M1162.016846,369.903320 
	C1163.127808,317.156067 1164.217407,264.894714 1165.325928,211.723450 
	C1171.000610,214.549973 1176.207275,217.348419 1181.582153,219.774689 
	C1190.666504,223.875473 1200.245605,221.567993 1209.628052,221.380035 
	C1210.304688,221.366470 1211.495972,218.958694 1211.500732,217.660629 
	C1211.584961,194.836884 1211.506592,172.012573 1211.509521,149.188385 
	C1211.509888,146.408432 1211.775146,143.628494 1211.985107,139.532608 
	C1218.816040,142.631805 1224.825928,145.214218 1230.707153,148.062439 
	C1238.539062,151.855255 1238.709229,152.496765 1231.737183,157.481308 
	C1228.197388,160.012039 1226.940552,162.706818 1227.016724,166.988724 
	C1227.321777,184.133896 1227.329346,201.285706 1227.275635,218.434540 
	C1227.266968,221.203979 1228.356689,221.920425 1230.782471,221.907532 
	C1237.946045,221.869461 1245.116821,222.081131 1252.268799,221.794724 
	C1253.973633,221.726425 1255.941406,220.416550 1257.216797,219.116867 
	C1259.636230,216.651382 1261.642456,213.780289 1264.375732,210.388443 
	C1270.519775,214.709457 1276.656982,218.900055 1282.576172,223.378769 
	C1283.183350,223.838226 1283.038330,226.714066 1282.307861,227.296432 
	C1275.885132,232.416534 1274.728882,239.107025 1274.786865,246.901642 
	C1275.056396,283.219116 1274.621460,319.543457 1275.094482,355.856812 
	C1275.239868,367.018829 1270.652710,374.311127 1261.358032,379.217987 
	C1257.453857,381.279053 1253.181152,382.642090 1248.288574,384.644775 
	C1246.315552,365.246704 1229.630005,364.413391 1216.731445,358.899353 
	C1216.961304,358.277100 1217.191162,357.654816 1217.421021,357.032562 
	C1219.420654,357.319794 1221.412109,357.696777 1223.421265,357.878174 
	C1230.877563,358.551422 1238.330688,359.408600 1245.803711,359.677673 
	C1249.039429,359.794220 1252.724609,359.369934 1255.451538,357.843872 
	C1257.582642,356.651215 1259.793945,353.395355 1259.824219,351.028778 
	C1259.973389,339.406067 1259.190674,327.773987 1259.203003,316.145691 
	C1259.207520,311.868408 1257.795532,310.855103 1253.758789,310.882629 
	C1230.768677,311.039490 1207.776123,311.036743 1184.786255,310.853729 
	C1180.614624,310.820496 1179.345581,312.129272 1179.393311,316.259277 
	C1179.584351,332.750732 1179.459717,349.245728 1179.466553,365.739410 
	C1179.470947,376.240417 1173.041748,382.170502 1161.995483,381.629028 
	C1161.995483,377.892487 1161.995483,374.140808 1162.016846,369.903320 
M1225.500000,267.744873 
	C1211.696045,267.751221 1197.890747,267.865601 1184.088989,267.691528 
	C1180.429443,267.645355 1179.077026,268.711060 1179.161133,272.478394 
	C1179.365234,281.620789 1179.409668,290.777527 1179.115112,299.915466 
	C1178.980103,304.098877 1180.704102,304.890167 1184.401367,304.870728 
	C1207.684448,304.748169 1230.968872,304.741364 1254.251953,304.870575 
	C1257.865845,304.890594 1259.265381,303.945221 1259.164062,300.114868 
	C1258.922607,290.974152 1258.888916,281.815887 1259.187256,272.678314 
	C1259.323242,268.511566 1257.646484,267.642151 1253.940308,267.714935 
	C1244.796875,267.894592 1235.647217,267.755249 1225.500000,267.744873 
M1241.498413,228.070450 
	C1225.677979,228.061264 1209.857300,228.017075 1194.037109,228.077347 
	C1191.394653,228.087418 1188.739136,228.449310 1186.115723,228.828293 
	C1181.683350,229.468597 1179.309570,232.073502 1179.280396,236.606354 
	C1179.233276,243.932953 1179.294922,251.260574 1179.200806,258.586365 
	C1179.167969,261.154816 1180.221191,262.112793 1182.761719,262.108582 
	C1207.075195,262.068207 1231.389038,262.135712 1255.701294,261.967072 
	C1256.828369,261.959259 1258.882935,260.033356 1258.913940,258.955078 
	C1259.176270,249.803375 1259.027588,240.640778 1259.098755,231.482178 
	C1259.118896,228.888275 1258.011719,227.939499 1255.486084,228.008850 
	C1251.159302,228.127640 1246.827393,228.060440 1241.498413,228.070450 
z"/>
<path fill="#FEFDFA" opacity="1.000000" stroke="none" 
	d="
M969.180664,349.866425 
	C938.448608,353.298492 908.126343,356.334167 877.916260,360.237732 
	C862.108887,362.280273 846.504028,365.878601 830.788513,368.666351 
	C829.509583,368.893219 827.429382,368.780579 826.826721,367.986694 
	C821.634644,361.147583 816.696655,354.115601 811.494690,346.879395 
	C816.759521,344.785797 821.440125,343.453796 825.598450,341.170593 
	C837.574890,334.594788 846.710266,324.603943 853.702576,313.302673 
	C865.953247,293.502502 876.977539,272.943054 888.481873,252.682526 
	C889.274719,251.286270 889.788208,249.731400 890.781433,247.445190 
	C888.362122,247.199570 886.657471,246.878433 884.952209,246.875671 
	C860.621643,246.836197 836.290771,246.786682 811.960693,246.895630 
	C808.677368,246.910324 805.091309,247.090118 802.183594,248.393768 
	C796.921509,250.752914 794.064514,248.926331 791.988647,244.275620 
	C791.523743,243.234070 791.022339,242.208847 790.320312,240.712708 
	C791.711487,240.534256 792.764648,240.280624 793.817749,240.280991 
	C856.643860,240.302338 919.470032,240.300232 982.295776,240.478241 
	C986.803162,240.491013 989.689636,239.212021 992.106506,235.359253 
	C994.809204,231.050827 998.257385,227.210098 1001.665161,222.798111 
	C1009.655396,230.412018 1017.213013,237.613693 1024.770630,244.815369 
	C1024.456543,245.385406 1024.142456,245.955444 1023.828430,246.525482 
	C982.513428,246.525482 941.198364,246.525482 899.883362,246.525482 
	C899.721008,246.982803 899.558655,247.440109 899.396362,247.897430 
	C905.339111,251.909958 911.281799,255.922470 918.360352,260.701874 
	C915.445496,261.873383 914.039612,262.749603 912.532043,262.991241 
	C905.463928,264.124023 901.508606,269.213074 897.383484,274.300354 
	C882.186157,293.042664 866.982971,311.782410 851.549622,330.329712 
	C846.789795,336.049927 841.288879,341.153351 835.641907,347.045624 
	C837.348511,347.128326 838.857666,347.308105 840.359253,347.258667 
	C882.654114,345.866730 924.948120,344.450287 967.242493,343.041718 
	C973.831543,342.822296 974.324219,341.964752 971.614258,336.024292 
	C962.875427,316.868561 950.610596,300.156433 936.430481,284.727692 
	C935.345886,283.547577 935.139648,281.560150 934.525085,279.947998 
	C936.243835,280.388672 938.296814,280.369934 939.630310,281.340118 
	C955.282166,292.726929 970.480713,304.693970 982.944763,319.645111 
	C990.070801,328.193024 997.162964,336.799500 999.545105,348.280518 
	C1001.580750,358.091370 998.574341,365.579681 990.833618,371.544037 
	C987.641541,374.003540 985.097107,373.271515 983.637268,369.822937 
	C981.760376,365.388916 979.724365,360.871124 978.885559,356.187286 
	C977.849121,350.400513 974.976440,348.670990 969.180664,349.866425 
z"/>
<path fill="#FEFDFA" opacity="1.000000" stroke="none" 
	d="
M1150.128662,184.871567 
	C1153.474609,188.455505 1156.571045,191.787933 1160.751953,196.287384 
	C1156.972656,196.676849 1154.940552,197.063004 1152.907349,197.068069 
	C1135.245117,197.112030 1117.581909,197.186310 1099.921265,197.008560 
	C1095.905518,196.968170 1093.465942,198.303864 1091.591064,201.866302 
	C1086.256348,212.002747 1080.642700,221.992447 1074.809204,232.641647 
	C1076.674805,232.875275 1077.886475,233.156769 1079.098511,233.158691 
	C1090.928833,233.177475 1102.768433,232.870682 1114.584839,233.268097 
	C1119.519043,233.434052 1122.804810,231.704163 1125.601685,228.035507 
	C1127.398682,225.678528 1129.377930,223.460510 1131.614502,220.772720 
	C1137.959595,226.059235 1143.968140,231.007721 1149.873901,236.076172 
	C1150.455811,236.575653 1150.872070,238.312424 1150.558105,238.603195 
	C1149.812988,239.293182 1148.585693,239.777466 1147.547974,239.787354 
	C1139.050903,239.868332 1130.552246,239.766830 1122.054932,239.835739 
	C1117.591919,239.871918 1111.262695,238.437836 1109.159790,240.747925 
	C1106.739014,243.407104 1107.903320,249.464081 1107.786255,254.052429 
	C1107.637451,259.880280 1107.884888,265.718445 1107.726929,271.545807 
	C1107.640991,274.715027 1108.661865,276.312836 1112.002319,275.899841 
	C1112.494629,275.838959 1113.010620,275.826691 1113.499390,275.900208 
	C1123.358643,277.383331 1131.548828,275.076782 1136.759277,265.806549 
	C1137.134155,265.139557 1137.965698,264.729187 1138.006714,264.694092 
	C1143.976685,270.150085 1149.778198,275.452026 1156.601685,281.688049 
	C1153.653809,281.879517 1151.959961,282.083252 1150.265869,282.084656 
	C1137.602417,282.095001 1124.938843,282.085480 1112.275635,282.031067 
	C1109.759521,282.020264 1107.721191,282.025635 1107.742432,285.564850 
	C1107.864258,305.891113 1107.835449,326.218231 1107.874146,346.545044 
	C1107.874756,346.857208 1108.082275,347.168945 1108.454956,348.217163 
	C1115.375244,344.220551 1122.119995,340.142639 1129.037598,336.382874 
	C1135.672729,332.776581 1141.694824,327.781281 1149.135620,325.889221 
	C1149.419434,326.357941 1149.703125,326.826660 1149.986938,327.295380 
	C1131.390259,343.304138 1112.793579,359.312897 1094.654541,374.927704 
	C1090.821899,371.429657 1086.503784,367.780396 1082.632446,363.706573 
	C1081.866333,362.900482 1082.191772,359.498444 1083.073120,358.926758 
	C1091.782959,353.277313 1092.288452,344.963165 1092.014404,335.725006 
	C1091.540527,319.743042 1091.702637,303.733368 1091.999634,287.742798 
	C1092.088623,282.955933 1090.430420,281.624817 1085.990356,281.999481 
	C1078.866333,282.600647 1071.677002,282.553223 1064.586304,283.385193 
	C1057.216553,284.249847 1057.102905,284.468231 1054.328369,276.268433 
	C1056.210938,276.142303 1057.933838,275.932953 1059.657349,275.927155 
	C1068.821777,275.896301 1077.987793,275.816193 1087.149658,275.971802 
	C1090.490112,276.028503 1091.981812,275.061676 1091.917603,271.467773 
	C1091.753906,262.306488 1091.760132,253.137451 1091.954834,243.976959 
	C1092.026733,240.601028 1090.721313,239.421204 1087.563843,239.802429 
	C1087.235474,239.842072 1086.891235,239.849823 1086.565674,239.799301 
	C1076.374878,238.217926 1068.276245,240.586563 1063.080200,250.553696 
	C1060.822021,254.885437 1056.904419,258.362457 1053.668823,262.166504 
	C1052.927490,263.038055 1051.889648,263.657349 1050.175781,263.892212 
	C1073.395386,226.400681 1085.152466,184.826019 1095.115601,141.856247 
	C1103.324585,146.108307 1110.727661,149.942947 1119.248047,154.356277 
	C1105.209106,163.115845 1103.686890,177.623001 1097.056396,190.903992 
	C1103.824219,190.903992 1109.383789,190.903809 1114.943359,190.904205 
	C1115.776489,190.904251 1116.627441,190.795670 1117.440063,190.925461 
	C1127.471191,192.527863 1135.362549,189.474792 1140.620361,180.466858 
	C1141.090942,179.660751 1142.020386,179.122513 1144.051514,177.243637 
	C1146.035278,179.754547 1147.957275,182.187302 1150.128662,184.871567 
z"/>
<path fill="#FDFCF8" opacity="1.000000" stroke="none" 
	d="
M822.078735,168.156525 
	C866.411865,168.090637 910.353394,167.983444 954.293396,168.191086 
	C959.503113,168.215698 962.688721,166.681000 964.980164,162.100311 
	C966.744202,158.573944 969.162109,155.374649 971.729431,151.337738 
	C979.967590,158.357468 987.763306,165.000183 995.559021,171.642914 
	C995.285950,172.170471 995.012939,172.698029 994.739868,173.225586 
	C993.528503,173.380981 992.317139,173.672470 991.105835,173.672195 
	C940.673828,173.660461 890.241760,173.576965 839.810059,173.685608 
	C836.259705,173.693268 832.720947,175.138901 829.160095,175.830200 
	C827.348206,176.181946 824.109863,176.961761 823.898499,176.487137 
	C822.751038,173.910721 822.346802,171.003296 822.078735,168.156525 
z"/>
<path fill="#E5D18D" opacity="1.000000" stroke="none" 
	d="
M1270.068848,82.428711 
	C1272.523560,70.043335 1278.524658,60.866062 1289.895630,55.518387 
	C1305.984619,47.951992 1329.704468,56.870461 1335.535156,76.699615 
	C1341.406006,96.665573 1326.501343,119.929970 1302.127686,118.752121 
	C1285.007568,117.924805 1268.661743,105.694725 1270.068848,82.428711 
M1290.130859,108.500320 
	C1291.170776,109.021584 1292.185425,109.602448 1293.254517,110.054855 
	C1303.887695,114.554756 1316.544678,111.298180 1324.377686,102.068459 
	C1331.339355,93.865486 1331.995483,81.272278 1325.952148,71.850159 
	C1319.588501,61.928558 1307.361572,56.964336 1296.580933,60.133801 
	C1286.329956,63.147495 1279.357544,69.832550 1277.346313,80.342834 
	C1275.107056,92.043747 1279.257568,101.577065 1290.130859,108.500320 
z"/>
<path fill="#FDFCF8" opacity="1.000000" stroke="none" 
	d="
M1014.465576,434.013794 
	C1014.359924,444.496735 1014.342529,454.485077 1014.062683,464.466064 
	C1014.015198,466.158264 1012.839600,467.818817 1012.185242,469.494019 
	C1009.883850,468.593658 1006.626099,468.363312 1005.445190,466.677826 
	C1000.104309,459.055267 995.341797,451.026764 990.388916,443.133240 
	C987.965454,439.270905 985.581055,435.384033 983.178955,431.508301 
	C982.719482,431.619690 982.259949,431.731079 981.800476,431.842468 
	C981.800476,436.049286 981.800354,440.256104 981.800476,444.462921 
	C981.800720,451.455231 981.755371,458.447998 981.825562,465.439606 
	C981.851074,467.974884 981.243652,469.586334 978.271057,469.620300 
	C975.148743,469.656006 974.849548,467.816620 974.855652,465.391327 
	C974.889221,452.076569 974.767944,438.760254 974.965210,425.448364 
	C974.993408,423.541687 975.989075,420.599365 977.364807,419.982574 
	C980.182251,418.719421 983.145996,419.532318 985.039734,422.667053 
	C989.340820,429.786804 993.795105,436.813904 998.176453,443.885284 
	C1000.786377,448.097626 1003.376038,452.322449 1007.057007,456.484955 
	C1007.220154,455.016357 1007.504761,453.549591 1007.526794,452.078827 
	C1007.663696,442.924835 1007.913147,433.767212 1007.769470,424.616394 
	C1007.694458,419.839569 1009.592712,418.702179 1014.465454,420.336761 
	C1014.465454,424.627075 1014.465454,429.071899 1014.465576,434.013794 
z"/>
<path fill="#FDFCF8" opacity="1.000000" stroke="none" 
	d="
M1195.477173,460.418945 
	C1188.519409,469.286713 1179.698608,471.600037 1169.470947,468.830139 
	C1160.407959,466.375671 1155.633301,460.185028 1153.559448,451.004303 
	C1151.887451,443.602325 1152.466309,436.884857 1155.967163,430.321655 
	C1160.623413,421.592560 1169.232056,417.617401 1179.955688,419.146790 
	C1189.598022,420.521912 1197.406616,427.636749 1199.430420,436.735107 
	C1201.279663,445.049255 1200.201538,452.847412 1195.477173,460.418945 
M1186.901367,460.480530 
	C1194.074829,453.041656 1194.946777,444.492706 1191.406860,435.139221 
	C1188.895752,428.504395 1184.083252,425.083069 1177.043945,424.758820 
	C1170.267456,424.446655 1164.322021,427.667236 1162.073120,434.152832 
	C1160.543823,438.563507 1159.756226,443.594849 1160.122192,448.231384 
	C1161.234009,462.319397 1174.170166,468.401611 1186.901367,460.480530 
z"/>
<path fill="#FDFCF8" opacity="1.000000" stroke="none" 
	d="
M1044.346313,419.418152 
	C1048.296753,419.192047 1050.541626,421.047729 1052.374390,423.963501 
	C1055.195557,428.451874 1058.266479,432.783264 1062.026367,438.360443 
	C1065.249634,433.566101 1068.014404,429.404449 1070.831421,425.278412 
	C1073.414185,421.495270 1075.898071,417.434174 1082.113403,420.340607 
	C1081.634033,421.324005 1081.242554,422.487823 1080.567139,423.453064 
	C1076.755127,428.900757 1072.968506,434.370697 1068.980957,439.688995 
	C1066.804321,442.592041 1066.428467,444.813263 1068.968262,447.992554 
	C1073.315186,453.434143 1077.011841,459.397858 1080.929688,465.177368 
	C1081.636108,466.219360 1082.094360,467.429749 1082.838501,468.901154 
	C1078.360352,470.235931 1075.181152,469.727570 1072.735718,465.740143 
	C1069.463501,460.404572 1065.841064,455.283813 1061.892212,449.355011 
	C1057.903076,455.126343 1054.001465,460.225281 1050.720703,465.696442 
	C1048.262085,469.796753 1045.120239,470.269196 1040.191162,469.028290 
	C1044.929688,462.179901 1049.051025,455.403809 1054.021362,449.321533 
	C1057.466431,445.105804 1057.321899,442.166962 1053.931274,438.146606 
	C1050.087524,433.589081 1046.906982,428.463470 1043.554932,423.505951 
	C1042.679810,422.211792 1040.559814,420.434723 1044.346313,419.418152 
z"/>
<path fill="#FDFCF8" opacity="1.000000" stroke="none" 
	d="
M1147.250366,469.536774 
	C1142.954712,470.087921 1140.589355,468.540588 1139.814087,464.488190 
	C1139.411499,462.384521 1138.882202,460.139679 1137.742554,458.394623 
	C1136.827026,456.993042 1135.028564,455.705017 1133.403320,455.339813 
	C1131.027344,454.805878 1128.455566,455.145874 1125.967285,455.108398 
	C1116.464111,454.965240 1116.464111,454.964539 1113.357056,463.957214 
	C1111.304565,469.897614 1111.074341,470.054901 1105.255981,468.922028 
	C1105.718506,467.062592 1105.993164,465.157501 1106.660767,463.401764 
	C1111.791016,449.908783 1116.902100,436.406189 1122.310791,423.024536 
	C1122.929443,421.494141 1125.373169,419.751495 1126.922852,419.795471 
	C1128.733032,419.846771 1131.514526,421.358276 1132.111572,422.913177 
	C1137.644775,437.324615 1142.821167,451.873718 1148.001709,466.418335 
	C1148.307861,467.277832 1147.756958,468.442657 1147.250366,469.536774 
M1124.043945,434.565002 
	C1122.472534,439.146210 1120.901123,443.727417 1119.338501,448.282867 
	C1124.676392,448.282867 1129.129639,448.282867 1133.992920,448.282867 
	C1132.673950,444.418915 1131.587646,441.303802 1130.548340,438.173126 
	C1129.485352,434.971405 1128.468506,431.754425 1126.973877,427.127625 
	C1125.696777,430.281464 1124.978027,432.056152 1124.043945,434.565002 
z"/>
<path fill="#FEFDFA" opacity="1.000000" stroke="none" 
	d="
M950.093445,469.279968 
	C947.860229,469.557404 946.043457,469.946350 944.225403,469.952881 
	C933.101990,469.992828 926.038208,463.343811 925.489990,451.615082 
	C925.062622,442.472168 925.435669,433.293243 925.387085,424.130646 
	C925.360291,419.077423 928.530396,419.709808 932.145569,420.157196 
	C932.145569,427.332458 932.052307,434.288818 932.180542,441.241150 
	C932.257141,445.392517 932.499023,449.559174 932.990051,453.680420 
	C933.783813,460.342529 937.592407,463.972046 943.523071,464.107788 
	C951.715454,464.295288 956.649597,460.893463 957.603210,453.789520 
	C958.153381,449.690948 957.906006,445.479584 957.937195,441.318390 
	C957.983398,435.154480 957.797791,428.981842 958.110901,422.833313 
	C958.167419,421.725342 960.171021,419.863464 961.239014,419.888916 
	C962.416199,419.916901 964.541504,421.709839 964.551575,422.750458 
	C964.652893,433.232788 964.839783,443.748566 964.117737,454.193756 
	C963.534119,462.636963 958.804321,467.177307 950.093445,469.279968 
z"/>
<path fill="#FEFDFA" opacity="1.000000" stroke="none" 
	d="
M1278.087402,179.971405 
	C1265.014771,188.071091 1254.903198,198.872971 1245.007568,209.949570 
	C1243.900879,211.188431 1241.699951,211.449921 1240.006592,212.164612 
	C1240.339966,210.456024 1240.254517,208.508774 1241.071289,207.075607 
	C1249.549561,192.198425 1258.174805,177.404999 1266.751587,162.583862 
	C1267.240479,161.739151 1267.661621,160.855240 1268.823364,158.633362 
	C1274.897339,164.338699 1280.543335,169.642105 1286.840332,175.557022 
	C1283.362915,177.311737 1280.889771,178.559692 1278.087402,179.971405 
z"/>
<path fill="#FEFDFB" opacity="1.000000" stroke="none" 
	d="
M1191.548584,185.529510 
	C1197.720459,194.059174 1196.780884,202.059769 1189.333252,207.569260 
	C1186.822754,209.426498 1184.801514,209.569946 1183.360718,206.448929 
	C1181.903198,203.291840 1180.830444,199.915985 1179.059326,196.952606 
	C1173.797974,188.149689 1168.268799,179.507141 1162.861694,170.791046 
	C1161.730225,168.967148 1160.673462,167.096863 1160.243896,164.674240 
	C1172.200317,169.428650 1182.557861,176.135056 1191.548584,185.529510 
z"/>
<path fill="#FDFCF8" opacity="1.000000" stroke="none" 
	d="
M876.420349,420.873108 
	C880.091492,418.052643 883.015137,419.347046 885.115967,422.693848 
	C888.301575,427.768707 891.208435,433.018036 894.268311,438.172699 
	C895.086487,439.551025 896.030762,440.854523 897.441467,442.983826 
	C901.811890,435.943848 905.696777,429.622437 909.648010,423.342773 
	C912.424988,418.929260 912.981934,418.773193 919.079224,420.352753 
	C918.235046,421.852844 917.509766,423.266510 916.670715,424.608948 
	C914.199585,428.562500 912.011230,432.749817 909.118591,436.371490 
	C902.442200,444.730469 899.477173,453.959564 900.912842,464.633423 
	C901.200195,466.770172 901.687866,469.527802 897.909302,469.647156 
	C894.176392,469.765076 893.723938,467.383057 894.170166,464.724548 
	C896.114563,453.139099 891.563110,443.712372 884.904846,434.757843 
	C881.741028,430.502869 879.247681,425.749359 876.420349,420.873108 
z"/>
<path fill="#FCF9F3" opacity="1.000000" stroke="none" 
	d="
M1090.618896,467.192017 
	C1090.522705,452.499573 1090.504395,438.226959 1090.436035,423.954590 
	C1090.423462,421.350037 1090.783447,419.474457 1094.144897,419.473755 
	C1097.544678,419.473022 1097.803589,421.376129 1097.793457,423.980072 
	C1097.740234,437.755341 1097.808716,451.531342 1097.682373,465.305664 
	C1097.669434,466.731537 1096.556152,469.386322 1096.112183,469.353088 
	C1094.268188,469.214874 1092.484985,468.264343 1090.618896,467.192017 
z"/>
<path fill="#FCF9F3" opacity="1.000000" stroke="none" 
	d="
M1256.168213,441.458954 
	C1258.599731,446.222321 1257.982910,447.538300 1253.573486,447.560242 
	C1243.110107,447.612274 1232.646484,447.591034 1222.182861,447.575653 
	C1220.036011,447.572510 1217.674316,447.902435 1217.607056,444.563538 
	C1217.543579,441.415039 1219.514038,441.215973 1221.894165,441.229858 
	C1233.186401,441.295685 1244.479004,441.304901 1256.168213,441.458954 
z"/>
<path fill="#FCF9F3" opacity="1.000000" stroke="none" 
	d="
M853.567749,441.190735 
	C856.780762,440.986511 858.987671,441.922607 858.123962,444.991577 
	C857.796814,446.154266 855.350159,447.406616 853.843262,447.440277 
	C843.700256,447.666840 833.550110,447.588593 823.402283,447.580048 
	C821.125732,447.578125 818.447876,448.105713 818.331543,444.506866 
	C818.213684,440.863129 820.858521,441.251892 823.178284,441.244904 
	C833.159790,441.214874 843.141296,441.206085 853.567749,441.190735 
z"/>
<path fill="#DFC674" opacity="1.000000" stroke="none" 
	d="
M128.989960,373.117798 
	C134.187683,339.936951 152.030945,317.087738 182.978165,305.241547 
	C203.895508,297.234680 225.023178,297.585052 245.628967,307.083344 
	C248.403687,308.362366 249.829803,307.634094 251.034088,304.944763 
	C252.802032,300.996796 254.811127,297.147095 256.898346,293.355103 
	C258.350525,290.716827 257.898865,289.308167 255.039307,287.998566 
	C244.325928,283.092102 233.099548,280.289062 221.421143,279.114471 
	C220.457260,279.017578 219.497559,278.879272 218.498550,278.755585 
	C228.570068,246.202789 280.749664,218.040924 324.058014,255.094391 
	C328.008942,250.507645 332.078217,245.991058 335.804291,241.207123 
	C336.295776,240.576111 335.459595,238.009796 334.517365,237.308838 
	C328.123291,232.552048 321.542297,228.045990 315.002930,223.485764 
	C314.087006,222.847031 313.068756,222.355011 311.335846,221.355591 
	C347.381134,190.794830 388.158386,178.256195 433.897491,187.695496 
	C485.505402,198.345917 520.668945,229.646896 540.319458,279.426666 
	C526.810181,278.455872 514.133118,278.507812 501.127869,282.313934 
	C502.619507,288.432922 503.827271,294.417084 505.724091,300.174225 
	C506.047241,301.154999 509.326721,301.572937 511.232422,301.551208 
	C520.323364,301.447449 529.620117,299.733887 538.464417,301.081604 
	C575.274414,306.690735 598.851379,327.857147 608.543274,363.926422 
	C612.529907,378.763062 611.320679,393.491028 606.674377,408.149902 
	C599.541626,430.653137 585.334778,446.953156 564.551270,457.694641 
	C552.011353,464.175659 538.451538,466.777283 524.481567,466.788757 
	C421.492249,466.873474 318.502380,466.986572 215.513565,466.739044 
	C178.118317,466.649170 150.862534,449.290588 134.964081,415.422699 
	C128.834824,402.365784 127.121391,388.070648 128.989960,373.117798 
z"/>
<path fill="#DFC674" opacity="1.000000" stroke="none" 
	d="
M1226.000000,267.744507 
	C1235.647217,267.755249 1244.796875,267.894592 1253.940308,267.714935 
	C1257.646484,267.642151 1259.323242,268.511566 1259.187256,272.678314 
	C1258.888916,281.815887 1258.922607,290.974152 1259.164062,300.114868 
	C1259.265381,303.945221 1257.865845,304.890594 1254.251953,304.870575 
	C1230.968872,304.741364 1207.684448,304.748169 1184.401367,304.870728 
	C1180.704102,304.890167 1178.980103,304.098877 1179.115112,299.915466 
	C1179.409668,290.777527 1179.365234,281.620789 1179.161133,272.478394 
	C1179.077026,268.711060 1180.429443,267.645355 1184.088989,267.691528 
	C1197.890747,267.865601 1211.696045,267.751221 1226.000000,267.744507 
z"/>
<path fill="#DEC673" opacity="1.000000" stroke="none" 
	d="
M1241.998047,228.070892 
	C1246.827393,228.060440 1251.159302,228.127640 1255.486084,228.008850 
	C1258.011719,227.939499 1259.118896,228.888275 1259.098755,231.482178 
	C1259.027588,240.640778 1259.176270,249.803375 1258.913940,258.955078 
	C1258.882935,260.033356 1256.828369,261.959259 1255.701294,261.967072 
	C1231.389038,262.135712 1207.075195,262.068207 1182.761719,262.108582 
	C1180.221191,262.112793 1179.167969,261.154816 1179.200806,258.586365 
	C1179.294922,251.260574 1179.233276,243.932953 1179.280396,236.606354 
	C1179.309570,232.073502 1181.683350,229.468597 1186.115723,228.828293 
	C1188.739136,228.449310 1191.394653,228.087418 1194.037109,228.077347 
	C1209.857300,228.017075 1225.677979,228.061264 1241.998047,228.070892 
z"/>
<path fill="#F4EBD0" opacity="1.000000" stroke="none" 
	d="
M1289.802002,108.329491 
	C1279.257568,101.577065 1275.107056,92.043747 1277.346313,80.342834 
	C1279.357544,69.832550 1286.329956,63.147495 1296.580933,60.133801 
	C1307.361572,56.964336 1319.588501,61.928558 1325.952148,71.850159 
	C1331.995483,81.272278 1331.339355,93.865486 1324.377686,102.068459 
	C1316.544678,111.298180 1303.887695,114.554756 1293.254517,110.054855 
	C1292.185425,109.602448 1291.170776,109.021584 1289.802002,108.329491 
M1290.726807,100.853462 
	C1300.247192,107.144073 1309.662109,106.084023 1316.588501,97.941574 
	C1322.491577,91.002113 1322.499146,80.021843 1316.605713,73.097961 
	C1310.264771,65.648300 1300.920898,64.061127 1292.867310,69.065811 
	C1281.865723,75.902428 1280.549194,90.971886 1290.726807,100.853462 
z"/>
<path fill="#DFC674" opacity="1.000000" stroke="none" 
	d="
M1186.614990,460.721252 
	C1174.170166,468.401611 1161.234009,462.319397 1160.122192,448.231384 
	C1159.756226,443.594849 1160.543823,438.563507 1162.073120,434.152832 
	C1164.322021,427.667236 1170.267456,424.446655 1177.043945,424.758820 
	C1184.083252,425.083069 1188.895752,428.504395 1191.406860,435.139221 
	C1194.946777,444.492706 1194.074829,453.041656 1186.614990,460.721252 
z"/>
<path fill="#DFC674" opacity="1.000000" stroke="none" 
	d="
M1124.151611,434.197937 
	C1124.978027,432.056152 1125.696777,430.281464 1126.973877,427.127625 
	C1128.468506,431.754425 1129.485352,434.971405 1130.548340,438.173126 
	C1131.587646,441.303802 1132.673950,444.418915 1133.992920,448.282867 
	C1129.129639,448.282867 1124.676392,448.282867 1119.338501,448.282867 
	C1120.901123,443.727417 1122.472534,439.146210 1124.151611,434.197937 
z"/>
<path fill="#FFFFFF" opacity="1.000000" stroke="none" 
	d="
M1290.427002,100.642151 
	C1280.549194,90.971886 1281.865723,75.902428 1292.867310,69.065811 
	C1300.920898,64.061127 1310.264771,65.648300 1316.605713,73.097961 
	C1322.499146,80.021843 1322.491577,91.002113 1316.588501,97.941574 
	C1309.662109,106.084023 1300.247192,107.144073 1290.427002,100.642151 
z"/>
</svg>